<?xml version="1.0" encoding="UTF-8" ?>
<svg xmlns="http://www.w3.org/2000/svg" xmlns:xlink="http://www.w3.org/1999/xlink" width="1300pt" height="696pt" viewBox="0.00 0.00 1300.22 696.08">
<g id="graph0" class="graph" transform="scale(1 1) rotate(0) translate(4 692.0822)">
<title>EX_event_sets</title>
<polygon fill="#ffffff" stroke="transparent" points="-4,4 -4,-692.0822 1296.2191,-692.0822 1296.2191,4 -4,4"/>
<!-- n61d3e59b_1 -->
<g id="node1" class="node">
<title>n61d3e59b_1</title>
<ellipse fill="none" stroke="#338866" cx="632.6095" cy="-660.4212" rx="27.8228" ry="27.8228"/>
<text text-anchor="middle" x="632.6095" y="-656.2212" font-family="Times,serif" font-size="14.00" fill="#338866">start</text>
</g>
<!-- ln_3 -->
<g id="node7" class="node">
<title>ln_3</title>
<ellipse fill="#f0f0f0" stroke="transparent" cx="570.6095" cy="-555.4653" rx="53.8201" ry="41.0911"/>
<text text-anchor="start" x="565.5562" y="-568.0653" font-family="Times,serif" font-size="14.00" fill="#000000">A</text>
<text text-anchor="start" x="540.6663" y="-551.2653" font-family="Times,serif" font-size="14.00" fill="#444455">length: 1.0</text>
<text text-anchor="start" x="548.4496" y="-534.4653" font-family="Times,serif" font-size="14.00" fill="#444455">age: 2.0</text>
</g>
<!-- n61d3e59b_1&#45;&gt;ln_3 -->
<g id="edge5" class="edge">
<title>n61d3e59b_1-&gt;ln_3</title>
<path fill="none" stroke="#000000" d="M618.5408,-636.6051C610.9665,-623.7831 601.447,-607.668 592.8917,-593.1853"/>
</g>
<!-- ln_4 -->
<g id="node9" class="node">
<title>ln_4</title>
<ellipse fill="#f0f0f0" stroke="transparent" cx="760.6095" cy="-555.4653" rx="53.8201" ry="41.0911"/>
<text text-anchor="start" x="755.9412" y="-568.0653" font-family="Times,serif" font-size="14.00" fill="#000000">B</text>
<text text-anchor="start" x="730.6663" y="-551.2653" font-family="Times,serif" font-size="14.00" fill="#444455">length: 2.0</text>
<text text-anchor="start" x="738.4496" y="-534.4653" font-family="Times,serif" font-size="14.00" fill="#444455">age: 3.0</text>
</g>
<!-- n61d3e59b_1&#45;&gt;ln_4 -->
<g id="edge7" class="edge">
<title>n61d3e59b_1-&gt;ln_4</title>
<path fill="none" stroke="#000000" d="M654.0339,-642.854C673.036,-627.2728 701.2023,-604.1773 723.8073,-585.6419"/>
</g>
<!-- nd8db18fe_1 -->
<g id="node2" class="node">
<title>nd8db18fe_1</title>
<ellipse fill="#000000" stroke="#000000" cx="874.6095" cy="-318.1801" rx="1.8" ry="1.8"/>
</g>
<!-- ln_1 -->
<g id="node3" class="node">
<title>ln_1</title>
<ellipse fill="#f0f0f0" stroke="transparent" cx="843.6095" cy="-239.0851" rx="53.8201" ry="41.0911"/>
<text text-anchor="start" x="838.5562" y="-251.6851" font-family="Times,serif" font-size="14.00" fill="#000000">A</text>
<text text-anchor="start" x="813.6663" y="-234.8851" font-family="Times,serif" font-size="14.00" fill="#444455">length: 1.0</text>
<text text-anchor="start" x="821.4496" y="-218.0851" font-family="Times,serif" font-size="14.00" fill="#444455">age: 2.0</text>
</g>
<!-- nd8db18fe_1&#45;&gt;ln_1 -->
<g id="edge1" class="edge">
<title>nd8db18fe_1-&gt;ln_1</title>
<path fill="none" stroke="#000000" d="M873.8432,-316.225C871.7174,-310.8011 865.4895,-294.9108 859.2344,-278.9512"/>
</g>
<!-- ln_2 -->
<g id="node5" class="node">
<title>ln_2</title>
<ellipse fill="#f0f0f0" stroke="transparent" cx="973.6095" cy="-239.0851" rx="58.7193" ry="41.0911"/>
<text text-anchor="start" x="968.9412" y="-251.6851" font-family="Times,serif" font-size="14.00" fill="#000000">B</text>
<text text-anchor="start" x="940.1663" y="-234.8851" font-family="Times,serif" font-size="14.00" fill="#444455">length: 12.0</text>
<text text-anchor="start" x="951.4496" y="-218.0851" font-family="Times,serif" font-size="14.00" fill="#444455">age: 3.0</text>
</g>
<!-- nd8db18fe_1&#45;&gt;ln_2 -->
<g id="edge3" class="edge">
<title>nd8db18fe_1-&gt;ln_2</title>
<path fill="none" stroke="#000000" d="M876.3279,-316.8073C883.3631,-311.1866 910.7292,-289.3227 934.6509,-270.2107"/>
</g>
<!-- n9b2ba2f1_1 -->
<g id="node4" class="node">
<title>n9b2ba2f1_1</title>
<ellipse fill="#000000" stroke="#000000" cx="461.6095" cy="-159.9901" rx="1.8" ry="1.8"/>
</g>
<!-- ln_1&#45;&gt;n9b2ba2f1_1 -->
<g id="edge2" class="edge">
<title>ln_1-&gt;n9b2ba2f1_1</title>
<path fill="none" stroke="#000000" d="M805.4243,-209.688C797.8638,-205.0368 789.7416,-200.7823 781.6095,-197.7901 723.1785,-176.2903 524.4297,-163.6007 473.5511,-160.6549"/>
<polygon fill="#000000" stroke="#000000" points="473.6883,-157.1571 463.5078,-160.091 473.2959,-164.1461 473.6883,-157.1571"/>
</g>
<!-- ln_17 -->
<g id="node30" class="node">
<title>ln_17</title>
<ellipse fill="#f0f0f0" stroke="transparent" cx="492.6095" cy="-80.895" rx="58.7193" ry="41.0911"/>
<text text-anchor="start" x="487.9412" y="-93.495" font-family="Times,serif" font-size="14.00" fill="#000000">B</text>
<text text-anchor="start" x="459.1663" y="-76.695" font-family="Times,serif" font-size="14.00" fill="#444455">length: 12.0</text>
<text text-anchor="start" x="470.4496" y="-59.895" font-family="Times,serif" font-size="14.00" fill="#444455">age: 3.0</text>
</g>
<!-- n9b2ba2f1_1&#45;&gt;ln_17 -->
<g id="edge33" class="edge">
<title>n9b2ba2f1_1-&gt;ln_17</title>
<path fill="none" stroke="#000000" d="M462.3758,-158.0349C464.5016,-152.611 470.7296,-136.7207 476.9847,-120.7612"/>
</g>
<!-- n3daf7657_1 -->
<g id="node6" class="node">
<title>n3daf7657_1</title>
<ellipse fill="#000000" stroke="#000000" cx="973.6095" cy="-159.9901" rx="1.8" ry="1.8"/>
</g>
<!-- ln_2&#45;&gt;n3daf7657_1 -->
<g id="edge4" class="edge">
<title>ln_2-&gt;n3daf7657_1</title>
<path fill="none" stroke="#000000" d="M973.6095,-197.6844C973.6095,-188.2093 973.6095,-178.8763 973.6095,-171.8675"/>
<polygon fill="#000000" stroke="#000000" points="977.1096,-171.8287 973.6095,-161.8288 970.1096,-171.8288 977.1096,-171.8287"/>
</g>
<!-- ln_13 -->
<g id="node26" class="node">
<title>ln_13</title>
<ellipse fill="#f0f0f0" stroke="transparent" cx="869.6095" cy="-80.895" rx="53.8201" ry="41.0911"/>
<text text-anchor="start" x="864.5562" y="-93.495" font-family="Times,serif" font-size="14.00" fill="#000000">A</text>
<text text-anchor="start" x="839.6663" y="-76.695" font-family="Times,serif" font-size="14.00" fill="#444455">length: 1.0</text>
<text text-anchor="start" x="847.4496" y="-59.895" font-family="Times,serif" font-size="14.00" fill="#444455">age: 2.0</text>
</g>
<!-- n3daf7657_1&#45;&gt;ln_13 -->
<g id="edge25" class="edge">
<title>n3daf7657_1-&gt;ln_13</title>
<path fill="none" stroke="#000000" d="M972.1394,-158.872C965.0784,-153.5019 933.9138,-129.8003 907.777,-109.9225"/>
</g>
<!-- n3cebba5_1 -->
<g id="node8" class="node">
<title>n3cebba5_1</title>
<ellipse fill="#000000" stroke="#000000" cx="521.6095" cy="-476.3702" rx="1.8" ry="1.8"/>
</g>
<!-- ln_3&#45;&gt;n3cebba5_1 -->
<g id="edge6" class="edge">
<title>ln_3-&gt;n3cebba5_1</title>
<path fill="none" stroke="#000000" d="M547.2576,-517.7709C540.2356,-506.4361 533.0876,-494.8979 528.1276,-486.8916"/>
<polygon fill="#000000" stroke="#000000" points="530.9376,-484.7814 522.6959,-478.1238 524.987,-488.4679 530.9376,-484.7814"/>
</g>
<!-- ln_5 -->
<g id="node11" class="node">
<title>ln_5</title>
<ellipse fill="#f0f0f0" stroke="transparent" cx="287.6095" cy="-397.2752" rx="58.7193" ry="41.0911"/>
<text text-anchor="start" x="282.5562" y="-409.8752" font-family="Times,serif" font-size="14.00" fill="#000000">A</text>
<text text-anchor="start" x="254.1663" y="-393.0752" font-family="Times,serif" font-size="14.00" fill="#444455">length: 10.0</text>
<text text-anchor="start" x="265.4496" y="-376.2752" font-family="Times,serif" font-size="14.00" fill="#444455">age: 7.0</text>
</g>
<!-- n3cebba5_1&#45;&gt;ln_5 -->
<g id="edge9" class="edge">
<title>n3cebba5_1-&gt;ln_5</title>
<path fill="none" stroke="#000000" d="M519.8605,-475.779C505.3899,-470.8878 404.4128,-436.7562 340.4565,-415.1382"/>
</g>
<!-- ln_6 -->
<g id="node13" class="node">
<title>ln_6</title>
<ellipse fill="#f0f0f0" stroke="transparent" cx="489.6095" cy="-397.2752" rx="58.7193" ry="41.0911"/>
<text text-anchor="start" x="484.9412" y="-409.8752" font-family="Times,serif" font-size="14.00" fill="#000000">B</text>
<text text-anchor="start" x="456.1663" y="-393.0752" font-family="Times,serif" font-size="14.00" fill="#444455">length: 12.0</text>
<text text-anchor="start" x="467.4496" y="-376.2752" font-family="Times,serif" font-size="14.00" fill="#444455">age: 3.0</text>
</g>
<!-- n3cebba5_1&#45;&gt;ln_6 -->
<g id="edge11" class="edge">
<title>n3cebba5_1-&gt;ln_6</title>
<path fill="none" stroke="#000000" d="M520.8185,-474.415C518.6241,-468.9912 512.1953,-453.1008 505.7384,-437.1413"/>
</g>
<!-- ln_7 -->
<g id="node15" class="node">
<title>ln_7</title>
<ellipse fill="#f0f0f0" stroke="transparent" cx="619.6095" cy="-397.2752" rx="53.8201" ry="41.0911"/>
<text text-anchor="start" x="614.9412" y="-409.8752" font-family="Times,serif" font-size="14.00" fill="#000000">B</text>
<text text-anchor="start" x="589.6663" y="-393.0752" font-family="Times,serif" font-size="14.00" fill="#444455">length: 2.0</text>
<text text-anchor="start" x="597.4496" y="-376.2752" font-family="Times,serif" font-size="14.00" fill="#444455">age: 3.0</text>
</g>
<!-- n3cebba5_1&#45;&gt;ln_7 -->
<g id="edge13" class="edge">
<title>n3cebba5_1-&gt;ln_7</title>
<path fill="none" stroke="#000000" d="M523.3105,-474.9974C530.4018,-469.2741 558.3597,-446.7094 582.3372,-427.3574"/>
</g>
<!-- n36197941_1 -->
<g id="node10" class="node">
<title>n36197941_1</title>
<ellipse fill="#000000" stroke="#000000" cx="809.6095" cy="-476.3702" rx="1.8" ry="1.8"/>
</g>
<!-- ln_4&#45;&gt;n36197941_1 -->
<g id="edge8" class="edge">
<title>ln_4-&gt;n36197941_1</title>
<path fill="none" stroke="#000000" d="M783.9615,-517.7709C790.9835,-506.4361 798.1315,-494.8979 803.0914,-486.8916"/>
<polygon fill="#000000" stroke="#000000" points="806.2321,-488.4679 808.5232,-478.1238 800.2815,-484.7814 806.2321,-488.4679"/>
</g>
<!-- ln_14 -->
<g id="node27" class="node">
<title>ln_14</title>
<ellipse fill="#f0f0f0" stroke="transparent" cx="744.6095" cy="-397.2752" rx="53.8201" ry="41.0911"/>
<text text-anchor="start" x="739.5562" y="-409.8752" font-family="Times,serif" font-size="14.00" fill="#000000">A</text>
<text text-anchor="start" x="714.6663" y="-393.0752" font-family="Times,serif" font-size="14.00" fill="#444455">length: 1.0</text>
<text text-anchor="start" x="722.4496" y="-376.2752" font-family="Times,serif" font-size="14.00" fill="#444455">age: 2.0</text>
</g>
<!-- n36197941_1&#45;&gt;ln_14 -->
<g id="edge27" class="edge">
<title>n36197941_1-&gt;ln_14</title>
<path fill="none" stroke="#000000" d="M808.2519,-474.7182C803.6577,-469.1278 788.1687,-450.28 773.6223,-432.5793"/>
</g>
<!-- ln_15 -->
<g id="node28" class="node">
<title>ln_15</title>
<ellipse fill="#f0f0f0" stroke="transparent" cx="874.6095" cy="-397.2752" rx="58.7193" ry="41.0911"/>
<text text-anchor="start" x="869.5562" y="-409.8752" font-family="Times,serif" font-size="14.00" fill="#000000">A</text>
<text text-anchor="start" x="841.1663" y="-393.0752" font-family="Times,serif" font-size="14.00" fill="#444455">length: 10.0</text>
<text text-anchor="start" x="852.4496" y="-376.2752" font-family="Times,serif" font-size="14.00" fill="#444455">age: 7.0</text>
</g>
<!-- n36197941_1&#45;&gt;ln_15 -->
<g id="edge29" class="edge">
<title>n36197941_1-&gt;ln_15</title>
<path fill="none" stroke="#000000" d="M810.9672,-474.7182C815.4884,-469.2165 830.5614,-450.875 844.9034,-433.423"/>
</g>
<!-- ln_16 -->
<g id="node29" class="node">
<title>ln_16</title>
<ellipse fill="#f0f0f0" stroke="transparent" cx="1056.6095" cy="-397.2752" rx="58.7193" ry="41.0911"/>
<text text-anchor="start" x="1051.9412" y="-409.8752" font-family="Times,serif" font-size="14.00" fill="#000000">B</text>
<text text-anchor="start" x="1023.1663" y="-393.0752" font-family="Times,serif" font-size="14.00" fill="#444455">length: 12.0</text>
<text text-anchor="start" x="1034.4496" y="-376.2752" font-family="Times,serif" font-size="14.00" fill="#444455">age: 3.0</text>
</g>
<!-- n36197941_1&#45;&gt;ln_16 -->
<g id="edge31" class="edge">
<title>n36197941_1-&gt;ln_16</title>
<path fill="none" stroke="#000000" d="M811.4998,-475.8869C823.4409,-472.8225 889.611,-455.677 942.6095,-438.5702 963.1428,-431.9425 985.509,-424.002 1004.9487,-416.8625"/>
</g>
<!-- na6905b62_1 -->
<g id="node12" class="node">
<title>na6905b62_1</title>
<ellipse fill="#000000" stroke="#000000" cx="188.6095" cy="-318.1801" rx="1.8" ry="1.8"/>
</g>
<!-- ln_5&#45;&gt;na6905b62_1 -->
<g id="edge10" class="edge">
<title>ln_5-&gt;na6905b62_1</title>
<path fill="none" stroke="#000000" d="M248.7663,-366.2417C230.1857,-351.397 209.5021,-334.8721 197.8721,-325.5804"/>
<polygon fill="#000000" stroke="#000000" points="200.0542,-322.8439 190.0568,-319.3364 195.6849,-328.3128 200.0542,-322.8439"/>
</g>
<!-- ln_8 -->
<g id="node17" class="node">
<title>ln_8</title>
<ellipse fill="#f0f0f0" stroke="transparent" cx="58.6095" cy="-239.0851" rx="58.7193" ry="41.0911"/>
<text text-anchor="start" x="53.9412" y="-251.6851" font-family="Times,serif" font-size="14.00" fill="#000000">B</text>
<text text-anchor="start" x="25.1663" y="-234.8851" font-family="Times,serif" font-size="14.00" fill="#444455">length: 12.0</text>
<text text-anchor="start" x="36.4496" y="-218.0851" font-family="Times,serif" font-size="14.00" fill="#444455">age: 3.0</text>
</g>
<!-- na6905b62_1&#45;&gt;ln_8 -->
<g id="edge15" class="edge">
<title>na6905b62_1-&gt;ln_8</title>
<path fill="none" stroke="#000000" d="M187.0468,-317.2518C179.9469,-313.0322 150.0214,-295.226 125.6095,-280.3801 118.2546,-275.9073 110.462,-271.135 102.8926,-266.4816"/>
</g>
<!-- ln_9 -->
<g id="node19" class="node">
<title>ln_9</title>
<ellipse fill="#f0f0f0" stroke="transparent" cx="188.6095" cy="-239.0851" rx="53.8201" ry="41.0911"/>
<text text-anchor="start" x="183.9412" y="-251.6851" font-family="Times,serif" font-size="14.00" fill="#000000">B</text>
<text text-anchor="start" x="158.6663" y="-234.8851" font-family="Times,serif" font-size="14.00" fill="#444455">length: 2.0</text>
<text text-anchor="start" x="166.4496" y="-218.0851" font-family="Times,serif" font-size="14.00" fill="#444455">age: 3.0</text>
</g>
<!-- na6905b62_1&#45;&gt;ln_9 -->
<g id="edge17" class="edge">
<title>na6905b62_1-&gt;ln_9</title>
<path fill="none" stroke="#000000" d="M188.6095,-316.225C188.6095,-310.9914 188.6095,-296.013 188.6095,-280.6305"/>
</g>
<!-- n68a318fe_1 -->
<g id="node14" class="node">
<title>n68a318fe_1</title>
<ellipse fill="#000000" stroke="#000000" cx="489.6095" cy="-318.1801" rx="1.8" ry="1.8"/>
</g>
<!-- ln_6&#45;&gt;n68a318fe_1 -->
<g id="edge12" class="edge">
<title>ln_6-&gt;n68a318fe_1</title>
<path fill="none" stroke="#000000" d="M489.6095,-355.8745C489.6095,-346.3994 489.6095,-337.0664 489.6095,-330.0576"/>
<polygon fill="#000000" stroke="#000000" points="493.1096,-330.0188 489.6095,-320.0188 486.1096,-330.0189 493.1096,-330.0188"/>
</g>
<!-- ln_18 -->
<g id="node31" class="node">
<title>ln_18</title>
<ellipse fill="#f0f0f0" stroke="transparent" cx="318.6095" cy="-239.0851" rx="58.7193" ry="41.0911"/>
<text text-anchor="start" x="313.5562" y="-251.6851" font-family="Times,serif" font-size="14.00" fill="#000000">A</text>
<text text-anchor="start" x="285.1663" y="-234.8851" font-family="Times,serif" font-size="14.00" fill="#444455">length: 10.0</text>
<text text-anchor="start" x="296.4496" y="-218.0851" font-family="Times,serif" font-size="14.00" fill="#444455">age: 7.0</text>
</g>
<!-- n68a318fe_1&#45;&gt;ln_18 -->
<g id="edge35" class="edge">
<title>n68a318fe_1-&gt;ln_18</title>
<path fill="none" stroke="#000000" d="M487.8401,-317.685C477.6371,-314.7997 425.3871,-299.6186 385.6095,-280.3801 377.6141,-276.5131 369.3594,-271.9476 361.4927,-267.2876"/>
</g>
<!-- ln_19 -->
<g id="node32" class="node">
<title>ln_19</title>
<ellipse fill="#f0f0f0" stroke="transparent" cx="583.6095" cy="-239.0851" rx="53.8201" ry="41.0911"/>
<text text-anchor="start" x="578.9412" y="-251.6851" font-family="Times,serif" font-size="14.00" fill="#000000">B</text>
<text text-anchor="start" x="553.6663" y="-234.8851" font-family="Times,serif" font-size="14.00" fill="#444455">length: 2.0</text>
<text text-anchor="start" x="561.4496" y="-218.0851" font-family="Times,serif" font-size="14.00" fill="#444455">age: 3.0</text>
</g>
<!-- n68a318fe_1&#45;&gt;ln_19 -->
<g id="edge37" class="edge">
<title>n68a318fe_1-&gt;ln_19</title>
<path fill="none" stroke="#000000" d="M491.2411,-316.8073C497.9698,-311.1455 524.2853,-289.0027 547.1153,-269.7927"/>
</g>
<!-- nf86a0334_1 -->
<g id="node16" class="node">
<title>nf86a0334_1</title>
<ellipse fill="#000000" stroke="#000000" cx="681.6095" cy="-318.1801" rx="1.8" ry="1.8"/>
</g>
<!-- ln_7&#45;&gt;nf86a0334_1 -->
<g id="edge14" class="edge">
<title>ln_7-&gt;nf86a0334_1</title>
<path fill="none" stroke="#000000" d="M647.3454,-361.8918C657.1389,-349.398 667.3717,-336.3437 674.0757,-327.7912"/>
<polygon fill="#000000" stroke="#000000" points="676.9669,-329.7763 680.3815,-319.7468 671.4577,-325.4578 676.9669,-329.7763"/>
</g>
<!-- ln_20 -->
<g id="node33" class="node">
<title>ln_20</title>
<ellipse fill="#f0f0f0" stroke="transparent" cx="453.6095" cy="-239.0851" rx="58.7193" ry="41.0911"/>
<text text-anchor="start" x="448.5562" y="-251.6851" font-family="Times,serif" font-size="14.00" fill="#000000">A</text>
<text text-anchor="start" x="420.1663" y="-234.8851" font-family="Times,serif" font-size="14.00" fill="#444455">length: 10.0</text>
<text text-anchor="start" x="431.4496" y="-218.0851" font-family="Times,serif" font-size="14.00" fill="#444455">age: 7.0</text>
</g>
<!-- nf86a0334_1&#45;&gt;ln_20 -->
<g id="edge39" class="edge">
<title>nf86a0334_1-&gt;ln_20</title>
<path fill="none" stroke="#000000" d="M679.6227,-317.9586C665.8005,-316.3684 582.7115,-306.0148 520.6095,-280.3801 512.2737,-276.9392 503.7827,-272.5278 495.7706,-267.8749"/>
</g>
<!-- ln_21 -->
<g id="node34" class="node">
<title>ln_21</title>
<ellipse fill="#f0f0f0" stroke="transparent" cx="713.6095" cy="-239.0851" rx="58.7193" ry="41.0911"/>
<text text-anchor="start" x="708.9412" y="-251.6851" font-family="Times,serif" font-size="14.00" fill="#000000">B</text>
<text text-anchor="start" x="680.1663" y="-234.8851" font-family="Times,serif" font-size="14.00" fill="#444455">length: 12.0</text>
<text text-anchor="start" x="691.4496" y="-218.0851" font-family="Times,serif" font-size="14.00" fill="#444455">age: 3.0</text>
</g>
<!-- nf86a0334_1&#45;&gt;ln_21 -->
<g id="edge41" class="edge">
<title>nf86a0334_1-&gt;ln_21</title>
<path fill="none" stroke="#000000" d="M682.4006,-316.225C684.5949,-310.8011 691.0238,-294.9108 697.4806,-278.9512"/>
</g>
<!-- nb64b8bb_1 -->
<g id="node18" class="node">
<title>nb64b8bb_1</title>
<ellipse fill="#000000" stroke="#000000" cx="318.6095" cy="-159.9901" rx="1.8" ry="1.8"/>
</g>
<!-- ln_8&#45;&gt;nb64b8bb_1 -->
<g id="edge16" class="edge">
<title>ln_8-&gt;nb64b8bb_1</title>
<path fill="none" stroke="#000000" d="M100.6672,-210.0381C108.6898,-205.4114 117.2111,-201.0754 125.6095,-197.7901 190.6847,-172.3341 275.0593,-163.421 306.2863,-160.8698"/>
<polygon fill="#000000" stroke="#000000" points="306.9174,-164.3329 316.6337,-160.1087 306.4039,-157.3518 306.9174,-164.3329"/>
</g>
<!-- ln_22 -->
<g id="node35" class="node">
<title>ln_22</title>
<ellipse fill="#f0f0f0" stroke="transparent" cx="360.6095" cy="-80.895" rx="53.8201" ry="41.0911"/>
<text text-anchor="start" x="355.9412" y="-93.495" font-family="Times,serif" font-size="14.00" fill="#000000">B</text>
<text text-anchor="start" x="330.6663" y="-76.695" font-family="Times,serif" font-size="14.00" fill="#444455">length: 2.0</text>
<text text-anchor="start" x="338.4496" y="-59.895" font-family="Times,serif" font-size="14.00" fill="#444455">age: 3.0</text>
</g>
<!-- nb64b8bb_1&#45;&gt;ln_22 -->
<g id="edge43" class="edge">
<title>nb64b8bb_1-&gt;ln_22</title>
<path fill="none" stroke="#000000" d="M319.4868,-158.3381C322.2904,-153.0582 331.3733,-135.9531 340.292,-119.1574"/>
</g>
<!-- ln_9&#45;&gt;n9b2ba2f1_1 -->
<g id="edge18" class="edge">
<title>ln_9-&gt;n9b2ba2f1_1</title>
<path fill="none" stroke="#000000" d="M226.9467,-210.0826C234.4925,-205.3931 242.5704,-201.0236 250.6095,-197.7901 322.2258,-168.9844 416.3088,-162.0425 449.4361,-160.4451"/>
<polygon fill="#000000" stroke="#000000" points="449.5867,-163.942 459.4392,-160.046 449.3076,-156.9476 449.5867,-163.942"/>
</g>
<!-- n5d3e608d_1 -->
<g id="node20" class="node">
<title>n5d3e608d_1</title>
<ellipse fill="#000000" stroke="#000000" cx="651.6095" cy="-159.9901" rx="1.8" ry="1.8"/>
</g>
<!-- ln_10 -->
<g id="node21" class="node">
<title>ln_10</title>
<ellipse fill="#f0f0f0" stroke="transparent" cx="635.6095" cy="-80.895" rx="58.7193" ry="41.0911"/>
<text text-anchor="start" x="630.5562" y="-93.495" font-family="Times,serif" font-size="14.00" fill="#000000">A</text>
<text text-anchor="start" x="602.1663" y="-76.695" font-family="Times,serif" font-size="14.00" fill="#444455">length: 10.0</text>
<text text-anchor="start" x="613.4496" y="-59.895" font-family="Times,serif" font-size="14.00" fill="#444455">age: 7.0</text>
</g>
<!-- n5d3e608d_1&#45;&gt;ln_10 -->
<g id="edge19" class="edge">
<title>n5d3e608d_1-&gt;ln_10</title>
<path fill="none" stroke="#000000" d="M651.214,-158.0349C650.1457,-152.7537 647.0701,-137.5498 643.9288,-122.0208"/>
</g>
<!-- n4a_1 -->
<g id="node22" class="node">
<title>n4a_1</title>
<ellipse fill="#000000" stroke="#000000" cx="622.6095" cy="-1.8" rx="1.8" ry="1.8"/>
</g>
<!-- ln_10&#45;&gt;n4a_1 -->
<g id="edge20" class="edge">
<title>ln_10-&gt;n4a_1</title>
<path fill="none" stroke="#000000" d="M628.8049,-39.4943C627.2476,-30.0192 625.7137,-20.6863 624.5617,-13.6774"/>
<polygon fill="#000000" stroke="#000000" points="627.9873,-12.9386 622.9117,-3.6387 621.08,-14.074 627.9873,-12.9386"/>
</g>
<!-- n9aedd69a_1 -->
<g id="node23" class="node">
<title>n9aedd69a_1</title>
<ellipse fill="#000000" stroke="#000000" cx="1103.6095" cy="-318.1801" rx="1.8" ry="1.8"/>
</g>
<!-- ln_11 -->
<g id="node24" class="node">
<title>ln_11</title>
<ellipse fill="#f0f0f0" stroke="transparent" cx="1103.6095" cy="-239.0851" rx="53.8201" ry="41.0911"/>
<text text-anchor="start" x="1098.5562" y="-251.6851" font-family="Times,serif" font-size="14.00" fill="#000000">A</text>
<text text-anchor="start" x="1073.6663" y="-234.8851" font-family="Times,serif" font-size="14.00" fill="#444455">length: 1.0</text>
<text text-anchor="start" x="1081.4496" y="-218.0851" font-family="Times,serif" font-size="14.00" fill="#444455">age: 2.0</text>
</g>
<!-- n9aedd69a_1&#45;&gt;ln_11 -->
<g id="edge21" class="edge">
<title>n9aedd69a_1-&gt;ln_11</title>
<path fill="none" stroke="#000000" d="M1103.6095,-316.225C1103.6095,-310.9914 1103.6095,-296.013 1103.6095,-280.6305"/>
</g>
<!-- ln_12 -->
<g id="node25" class="node">
<title>ln_12</title>
<ellipse fill="#f0f0f0" stroke="transparent" cx="1233.6095" cy="-239.0851" rx="58.7193" ry="41.0911"/>
<text text-anchor="start" x="1228.5562" y="-251.6851" font-family="Times,serif" font-size="14.00" fill="#000000">A</text>
<text text-anchor="start" x="1200.1663" y="-234.8851" font-family="Times,serif" font-size="14.00" fill="#444455">length: 10.0</text>
<text text-anchor="start" x="1211.4496" y="-218.0851" font-family="Times,serif" font-size="14.00" fill="#444455">age: 7.0</text>
</g>
<!-- n9aedd69a_1&#45;&gt;ln_12 -->
<g id="edge23" class="edge">
<title>n9aedd69a_1-&gt;ln_12</title>
<path fill="none" stroke="#000000" d="M1105.1723,-317.2518C1112.2722,-313.0322 1142.1977,-295.226 1166.6095,-280.3801 1173.9645,-275.9073 1181.7571,-271.135 1189.3265,-266.4816"/>
</g>
<!-- ln_11&#45;&gt;n5d3e608d_1 -->
<g id="edge22" class="edge">
<title>ln_11-&gt;n5d3e608d_1</title>
<path fill="none" stroke="#000000" d="M1065.8132,-209.7563C1058.1523,-205.0368 1049.8943,-200.7403 1041.6095,-197.7901 969.3827,-172.0701 721.9752,-162.3371 663.8875,-160.3785"/>
<polygon fill="#000000" stroke="#000000" points="663.6918,-156.8705 653.5846,-160.0479 663.4672,-163.8669 663.6918,-156.8705"/>
</g>
<!-- ln_12&#45;&gt;n3daf7657_1 -->
<g id="edge24" class="edge">
<title>ln_12-&gt;n3daf7657_1</title>
<path fill="none" stroke="#000000" d="M1191.5519,-210.0381C1183.5293,-205.4114 1175.008,-201.0754 1166.6095,-197.7901 1101.5344,-172.3341 1017.1597,-163.421 985.9328,-160.8698"/>
<polygon fill="#000000" stroke="#000000" points="985.8152,-157.3518 975.5854,-160.1087 985.3016,-164.3329 985.8152,-157.3518"/>
</g>
<!-- ln_13&#45;&gt;n4a_1 -->
<g id="edge26" class="edge">
<title>ln_13-&gt;n4a_1</title>
<path fill="none" stroke="#000000" d="M819.9225,-64.9841C760.9861,-46.1113 666.6254,-15.8949 634.0812,-5.4735"/>
<polygon fill="#000000" stroke="#000000" points="634.9953,-2.0912 624.4043,-2.3747 632.8605,-8.7577 634.9953,-2.0912"/>
</g>
<!-- ln_14&#45;&gt;nf86a0334_1 -->
<g id="edge28" class="edge">
<title>ln_14-&gt;nf86a0334_1</title>
<path fill="none" stroke="#000000" d="M716.4263,-361.8918C706.4749,-349.398 696.077,-336.3437 689.2648,-327.7912"/>
<polygon fill="#000000" stroke="#000000" points="691.8254,-325.3881 682.8574,-319.7468 686.35,-329.7494 691.8254,-325.3881"/>
</g>
<!-- ln_15&#45;&gt;nd8db18fe_1 -->
<g id="edge30" class="edge">
<title>ln_15-&gt;nd8db18fe_1</title>
<path fill="none" stroke="#000000" d="M874.6095,-355.8745C874.6095,-346.3994 874.6095,-337.0664 874.6095,-330.0576"/>
<polygon fill="#000000" stroke="#000000" points="878.1096,-330.0188 874.6095,-320.0188 871.1096,-330.0189 878.1096,-330.0188"/>
</g>
<!-- ln_16&#45;&gt;n9aedd69a_1 -->
<g id="edge32" class="edge">
<title>ln_16-&gt;n9aedd69a_1</title>
<path fill="none" stroke="#000000" d="M1079.2835,-359.1177C1085.9707,-347.864 1092.7472,-336.46 1097.4435,-328.5569"/>
<polygon fill="#000000" stroke="#000000" points="1100.4832,-330.2928 1102.5828,-319.908 1094.4655,-326.7169 1100.4832,-330.2928"/>
</g>
<!-- ln_17&#45;&gt;n4a_1 -->
<g id="edge34" class="edge">
<title>ln_17-&gt;n4a_1</title>
<path fill="none" stroke="#000000" d="M536.9846,-53.8962C563.9745,-37.4749 596.2574,-17.8333 612.3839,-8.0215"/>
<polygon fill="#000000" stroke="#000000" points="614.2406,-10.9888 620.9644,-2.801 610.6021,-5.0087 614.2406,-10.9888"/>
</g>
<!-- ln_18&#45;&gt;nb64b8bb_1 -->
<g id="edge36" class="edge">
<title>ln_18-&gt;nb64b8bb_1</title>
<path fill="none" stroke="#000000" d="M318.6095,-197.6844C318.6095,-188.2093 318.6095,-178.8763 318.6095,-171.8675"/>
<polygon fill="#000000" stroke="#000000" points="322.1096,-171.8287 318.6095,-161.8288 315.1096,-171.8288 322.1096,-171.8287"/>
</g>
<!-- ln_19&#45;&gt;n5d3e608d_1 -->
<g id="edge38" class="edge">
<title>ln_19-&gt;n5d3e608d_1</title>
<path fill="none" stroke="#000000" d="M613.2375,-204.623C624.3504,-191.6969 636.0969,-178.0338 643.6214,-169.2816"/>
<polygon fill="#000000" stroke="#000000" points="646.3591,-171.466 650.2243,-161.6014 641.051,-166.9025 646.3591,-171.466"/>
</g>
<!-- ln_20&#45;&gt;n9b2ba2f1_1 -->
<g id="edge40" class="edge">
<title>ln_20-&gt;n9b2ba2f1_1</title>
<path fill="none" stroke="#000000" d="M457.797,-197.6844C458.7553,-188.2093 459.6993,-178.8763 460.4082,-171.8675"/>
<polygon fill="#000000" stroke="#000000" points="463.8994,-172.1303 461.4236,-161.8288 456.9349,-171.4258 463.8994,-172.1303"/>
</g>
<!-- ln_21&#45;&gt;n5d3e608d_1 -->
<g id="edge42" class="edge">
<title>ln_21-&gt;n5d3e608d_1</title>
<path fill="none" stroke="#000000" d="M685.15,-202.7785C675.588,-190.58 665.7014,-177.9675 659.1622,-169.6253"/>
<polygon fill="#000000" stroke="#000000" points="661.7268,-167.2236 652.803,-161.5126 656.2177,-171.5421 661.7268,-167.2236"/>
</g>
<!-- ln_22&#45;&gt;n4a_1 -->
<g id="edge44" class="edge">
<title>ln_22-&gt;n4a_1</title>
<path fill="none" stroke="#000000" d="M399.6086,-52.4114C407.5854,-47.5545 416.1391,-42.9913 424.6095,-39.6 491.399,-12.8592 578.6041,-4.6901 610.365,-2.5094"/>
<polygon fill="#000000" stroke="#000000" points="610.8055,-5.9893 620.5768,-1.894 610.3843,.998 610.8055,-5.9893"/>
</g>
</g>
</svg>