<?xml version="1.0" encoding="UTF-8" ?>
<svg xmlns="http://www.w3.org/2000/svg" xmlns:xlink="http://www.w3.org/1999/xlink" width="417pt" height="783pt" viewBox="0.00 0.00 417.17 783.00">
<g id="graph0" class="graph" transform="scale(1 1) rotate(0) translate(4 778.9959)">
<title>first_model</title>
<polygon fill="#ffffff" stroke="transparent" points="-4,4 -4,-778.9959 413.1651,-778.9959 413.1651,4 -4,4"/>
<!-- ncce12e21_1 -->
<g id="node1" class="node">
<title>ncce12e21_1</title>
<ellipse fill="none" stroke="#338866" cx="204.5825" cy="-747.3349" rx="27.8228" ry="27.8228"/>
<text text-anchor="middle" x="204.5825" y="-743.1349" font-family="Times,serif" font-size="14.00" fill="#338866">start</text>
</g>
<!-- ln_1 -->
<g id="node2" class="node">
<title>ln_1</title>
<ellipse fill="#f0f0f0" stroke="transparent" cx="204.5825" cy="-654.2584" rx="195.564" ry="29.3315"/>
<text text-anchor="start" x="150.9275" y="-658.4584" font-family="Times,serif" font-size="14.00" fill="#000000">AddProductToCart</text>
<text text-anchor="start" x="74.1438" y="-641.6584" font-family="Times,serif" font-size="14.00" fill="#444455">name: HUMMINGBIRD PRINTED T-SHIRT</text>
</g>
<!-- ncce12e21_1&#45;&gt;ln_1 -->
<g id="edge1" class="edge">
<title>ncce12e21_1-&gt;ln_1</title>
<path fill="none" stroke="#000000" d="M204.5825,-719.6609C204.5825,-708.4077 204.5825,-695.3831 204.5825,-683.9333"/>
</g>
<!-- nfe6ba99_1 -->
<g id="node3" class="node">
<title>nfe6ba99_1</title>
<ellipse fill="#000000" stroke="#000000" cx="204.5825" cy="-587.0427" rx="1.8" ry="1.8"/>
</g>
<!-- ln_1&#45;&gt;nfe6ba99_1 -->
<g id="edge2" class="edge">
<title>ln_1-&gt;nfe6ba99_1</title>
<path fill="none" stroke="#000000" d="M204.5825,-624.5809C204.5825,-615.5515 204.5825,-606.1383 204.5825,-598.9969"/>
<polygon fill="#000000" stroke="#000000" points="208.0826,-598.9639 204.5825,-588.9639 201.0826,-598.964 208.0826,-598.9639"/>
</g>
<!-- ln_5 -->
<g id="node11" class="node">
<title>ln_5</title>
<ellipse fill="#f0f0f0" stroke="transparent" cx="204.5825" cy="-507.9477" rx="144.3328" ry="41.0911"/>
<text text-anchor="start" x="187.8609" y="-520.5477" font-family="Times,serif" font-size="14.00" fill="#000000">Login</text>
<text text-anchor="start" x="110.4647" y="-503.7477" font-family="Times,serif" font-size="14.00" fill="#444455">email: bob.marley@provego.com</text>
<text text-anchor="start" x="136.3507" y="-486.9477" font-family="Times,serif" font-size="14.00" fill="#444455">password: ishotthesherif</text>
</g>
<!-- nfe6ba99_1&#45;&gt;ln_5 -->
<g id="edge9" class="edge">
<title>nfe6ba99_1-&gt;ln_5</title>
<path fill="none" stroke="#000000" d="M204.5825,-585.0875C204.5825,-579.854 204.5825,-564.8755 204.5825,-549.4931"/>
</g>
<!-- ned05c00d_1 -->
<g id="node4" class="node">
<title>ned05c00d_1</title>
<ellipse fill="#000000" stroke="#000000" cx="204.5825" cy="-159.9901" rx="1.8" ry="1.8"/>
</g>
<!-- ln_2 -->
<g id="node5" class="node">
<title>ln_2</title>
<ellipse fill="#f0f0f0" stroke="transparent" cx="204.5825" cy="-80.895" rx="124.7081" ry="41.0911"/>
<text text-anchor="start" x="174.2543" y="-93.495" font-family="Times,serif" font-size="14.00" fill="#000000">Checkuout</text>
<text text-anchor="start" x="151.1333" y="-76.695" font-family="Times,serif" font-size="14.00" fill="#444455">defaultAdress: true</text>
<text text-anchor="start" x="124.2974" y="-59.895" font-family="Times,serif" font-size="14.00" fill="#444455">defaultPaymentMethod: true</text>
</g>
<!-- ned05c00d_1&#45;&gt;ln_2 -->
<g id="edge3" class="edge">
<title>ned05c00d_1-&gt;ln_2</title>
<path fill="none" stroke="#000000" d="M204.5825,-158.0349C204.5825,-152.8013 204.5825,-137.8229 204.5825,-122.4404"/>
</g>
<!-- n4a_1 -->
<g id="node6" class="node">
<title>n4a_1</title>
<ellipse fill="#000000" stroke="#000000" cx="204.5825" cy="-1.8" rx="1.8" ry="1.8"/>
</g>
<!-- ln_2&#45;&gt;n4a_1 -->
<g id="edge4" class="edge">
<title>ln_2-&gt;n4a_1</title>
<path fill="none" stroke="#000000" d="M204.5825,-39.4943C204.5825,-30.0192 204.5825,-20.6863 204.5825,-13.6774"/>
<polygon fill="#000000" stroke="#000000" points="208.0826,-13.6387 204.5825,-3.6387 201.0826,-13.6387 208.0826,-13.6387"/>
</g>
<!-- nb13b8d92_1 -->
<g id="node7" class="node">
<title>nb13b8d92_1</title>
<ellipse fill="#000000" stroke="#000000" cx="204.5825" cy="-294.4214" rx="1.8" ry="1.8"/>
</g>
<!-- ln_3 -->
<g id="node8" class="node">
<title>ln_3</title>
<ellipse fill="#f0f0f0" stroke="transparent" cx="204.5825" cy="-227.2057" rx="204.6651" ry="29.3315"/>
<text text-anchor="start" x="150.9275" y="-231.4057" font-family="Times,serif" font-size="14.00" fill="#000000">AddProductToCart</text>
<text text-anchor="start" x="67.9208" y="-214.6057" font-family="Times,serif" font-size="14.00" fill="#444455">name: HUMMINGBIRD PRINTED SWEATER</text>
</g>
<!-- nb13b8d92_1&#45;&gt;ln_3 -->
<g id="edge5" class="edge">
<title>nb13b8d92_1-&gt;ln_3</title>
<path fill="none" stroke="#000000" d="M204.5825,-292.4822C204.5825,-287.101 204.5825,-271.4118 204.5825,-256.7639"/>
</g>
<!-- ln_3&#45;&gt;ned05c00d_1 -->
<g id="edge6" class="edge">
<title>ln_3-&gt;ned05c00d_1</title>
<path fill="none" stroke="#000000" d="M204.5825,-197.5283C204.5825,-188.4989 204.5825,-179.0857 204.5825,-171.9442"/>
<polygon fill="#000000" stroke="#000000" points="208.0826,-171.9113 204.5825,-161.9113 201.0826,-171.9113 208.0826,-171.9113"/>
</g>
<!-- nd0b0b27f_1 -->
<g id="node9" class="node">
<title>nd0b0b27f_1</title>
<ellipse fill="#000000" stroke="#000000" cx="204.5825" cy="-428.8526" rx="1.8" ry="1.8"/>
</g>
<!-- ln_4 -->
<g id="node10" class="node">
<title>ln_4</title>
<ellipse fill="#f0f0f0" stroke="transparent" cx="204.5825" cy="-361.637" rx="195.564" ry="29.3315"/>
<text text-anchor="start" x="150.9275" y="-365.837" font-family="Times,serif" font-size="14.00" fill="#000000">AddProductToCart</text>
<text text-anchor="start" x="74.1438" y="-349.037" font-family="Times,serif" font-size="14.00" fill="#444455">name: HUMMINGBIRD PRINTED T-SHIRT</text>
</g>
<!-- nd0b0b27f_1&#45;&gt;ln_4 -->
<g id="edge7" class="edge">
<title>nd0b0b27f_1-&gt;ln_4</title>
<path fill="none" stroke="#000000" d="M204.5825,-426.9135C204.5825,-421.5323 204.5825,-405.843 204.5825,-391.1952"/>
</g>
<!-- ln_4&#45;&gt;nb13b8d92_1 -->
<g id="edge8" class="edge">
<title>ln_4-&gt;nb13b8d92_1</title>
<path fill="none" stroke="#000000" d="M204.5825,-331.9596C204.5825,-322.9301 204.5825,-313.517 204.5825,-306.3755"/>
<polygon fill="#000000" stroke="#000000" points="208.0826,-306.3425 204.5825,-296.3426 201.0826,-306.3426 208.0826,-306.3425"/>
</g>
<!-- ln_5&#45;&gt;nd0b0b27f_1 -->
<g id="edge10" class="edge">
<title>ln_5-&gt;nd0b0b27f_1</title>
<path fill="none" stroke="#000000" d="M204.5825,-466.547C204.5825,-457.0719 204.5825,-447.7389 204.5825,-440.7301"/>
<polygon fill="#000000" stroke="#000000" points="208.0826,-440.6913 204.5825,-430.6913 201.0826,-440.6914 208.0826,-440.6913"/>
</g>
</g>
</svg>