<?xml version="1.0" encoding="UTF-8" ?>
<svg xmlns="http://www.w3.org/2000/svg" xmlns:xlink="http://www.w3.org/1999/xlink" width="1528pt" height="91pt" viewBox="0.00 0.00 1527.94 90.59">
<g id="graph0" class="graph" transform="scale(1 1) rotate(0) translate(4 86.5901)">
<title>first_model</title>
<polygon fill="#ffffff" stroke="transparent" points="-4,4 -4,-86.5901 1523.937,-86.5901 1523.937,4 -4,4"/>
<!-- ndaaa2cba_1 -->
<g id="node1" class="node">
<title>ndaaa2cba_1</title>
<ellipse fill="none" stroke="#338866" cx="27.6609" cy="-41.295" rx="27.8228" ry="27.8228"/>
<text text-anchor="middle" x="27.6609" y="-37.095" font-family="Times,serif" font-size="14.00" fill="#338866">start</text>
</g>
<!-- ln_1 -->
<g id="node2" class="node">
<title>ln_1</title>
<ellipse fill="#f0f0f0" stroke="transparent" cx="235.7383" cy="-41.295" rx="144.3328" ry="41.0911"/>
<text text-anchor="start" x="219.0167" y="-53.895" font-family="Times,serif" font-size="14.00" fill="#000000">Login</text>
<text text-anchor="start" x="141.6205" y="-37.095" font-family="Times,serif" font-size="14.00" fill="#444455">email: bob.marley@provego.com</text>
<text text-anchor="start" x="167.5065" y="-20.295" font-family="Times,serif" font-size="14.00" fill="#444455">password: ishotthesherif</text>
</g>
<!-- ndaaa2cba_1&#45;&gt;ln_1 -->
<g id="edge1" class="edge">
<title>ndaaa2cba_1-&gt;ln_1</title>
<path fill="none" stroke="#000000" d="M55.7232,-41.295C65.8178,-41.295 78.0107,-41.295 91.2371,-41.295"/>
</g>
<!-- n9b95c816_1 -->
<g id="node3" class="node">
<title>n9b95c816_1</title>
<ellipse fill="#000000" stroke="#000000" cx="417.9546" cy="-41.295" rx="1.8" ry="1.8"/>
</g>
<!-- ln_1&#45;&gt;n9b95c816_1 -->
<g id="edge2" class="edge">
<title>ln_1-&gt;n9b95c816_1</title>
<path fill="none" stroke="#000000" d="M380.1993,-41.295C390.5255,-41.295 399.4398,-41.295 406.0096,-41.295"/>
<polygon fill="#000000" stroke="#000000" points="406.0956,-44.7951 416.0956,-41.295 406.0955,-37.7951 406.0956,-44.7951"/>
</g>
<!-- ln_4 -->
<g id="node9" class="node">
<title>ln_4</title>
<ellipse fill="#f0f0f0" stroke="transparent" cx="607.2729" cy="-41.295" rx="151.5366" ry="29.3315"/>
<text text-anchor="start" x="553.6179" y="-45.495" font-family="Times,serif" font-size="14.00" fill="#000000">AddProductToCart</text>
<text text-anchor="start" x="508.1333" y="-28.695" font-family="Times,serif" font-size="14.00" fill="#444455">name: HUMMINGBIRD T-SHIRT</text>
</g>
<!-- n9b95c816_1&#45;&gt;ln_4 -->
<g id="edge7" class="edge">
<title>n9b95c816_1-&gt;ln_4</title>
<path fill="none" stroke="#000000" d="M420.0808,-41.295C425.0368,-41.295 438.2594,-41.295 455.5276,-41.295"/>
</g>
<!-- n7c0fd16e_1 -->
<g id="node4" class="node">
<title>n7c0fd16e_1</title>
<ellipse fill="#000000" stroke="#000000" cx="796.5912" cy="-41.295" rx="1.8" ry="1.8"/>
</g>
<!-- ln_2 -->
<g id="node5" class="node">
<title>ln_2</title>
<ellipse fill="#f0f0f0" stroke="transparent" cx="994.7101" cy="-41.295" rx="160.1381" ry="29.3315"/>
<text text-anchor="start" x="941.0551" y="-45.495" font-family="Times,serif" font-size="14.00" fill="#000000">AddProductToCart</text>
<text text-anchor="start" x="889.3475" y="-28.695" font-family="Times,serif" font-size="14.00" fill="#444455">name: HUMMINGBIRD SWEATER</text>
</g>
<!-- n7c0fd16e_1&#45;&gt;ln_2 -->
<g id="edge3" class="edge">
<title>n7c0fd16e_1-&gt;ln_2</title>
<path fill="none" stroke="#000000" d="M798.8162,-41.295C803.8325,-41.295 816.9417,-41.295 834.1471,-41.295"/>
</g>
<!-- nb7da03e9_1 -->
<g id="node6" class="node">
<title>nb7da03e9_1</title>
<ellipse fill="#000000" stroke="#000000" cx="1192.829" cy="-41.295" rx="1.8" ry="1.8"/>
</g>
<!-- ln_2&#45;&gt;nb7da03e9_1 -->
<g id="edge4" class="edge">
<title>ln_2-&gt;nb7da03e9_1</title>
<path fill="none" stroke="#000000" d="M1155.098,-41.295C1165.4993,-41.295 1174.4133,-41.295 1180.9614,-41.295"/>
<polygon fill="#000000" stroke="#000000" points="1180.9885,-44.7951 1190.9884,-41.295 1180.9884,-37.7951 1180.9885,-44.7951"/>
</g>
<!-- ln_3 -->
<g id="node7" class="node">
<title>ln_3</title>
<ellipse fill="#f0f0f0" stroke="transparent" cx="1355.483" cy="-41.295" rx="124.7081" ry="41.0911"/>
<text text-anchor="start" x="1325.1548" y="-53.895" font-family="Times,serif" font-size="14.00" fill="#000000">Checkuout</text>
<text text-anchor="start" x="1302.0338" y="-37.095" font-family="Times,serif" font-size="14.00" fill="#444455">defaultAdress: true</text>
<text text-anchor="start" x="1275.1979" y="-20.295" font-family="Times,serif" font-size="14.00" fill="#444455">defaultPaymentMethod: true</text>
</g>
<!-- nb7da03e9_1&#45;&gt;ln_3 -->
<g id="edge5" class="edge">
<title>nb7da03e9_1-&gt;ln_3</title>
<path fill="none" stroke="#000000" d="M1194.6557,-41.295C1199.4024,-41.295 1212.9748,-41.295 1230.3494,-41.295"/>
</g>
<!-- n4a_1 -->
<g id="node8" class="node">
<title>n4a_1</title>
<ellipse fill="#000000" stroke="#000000" cx="1518.137" cy="-41.295" rx="1.8" ry="1.8"/>
</g>
<!-- ln_3&#45;&gt;n4a_1 -->
<g id="edge6" class="edge">
<title>ln_3-&gt;n4a_1</title>
<path fill="none" stroke="#000000" d="M1480.4121,-41.295C1490.6099,-41.295 1499.5092,-41.295 1506.0992,-41.295"/>
<polygon fill="#000000" stroke="#000000" points="1506.2541,-44.7951 1516.2541,-41.295 1506.254,-37.7951 1506.2541,-44.7951"/>
</g>
<!-- ln_4&#45;&gt;n7c0fd16e_1 -->
<g id="edge8" class="edge">
<title>ln_4-&gt;n7c0fd16e_1</title>
<path fill="none" stroke="#000000" d="M759.188,-41.295C769.3274,-41.295 778.0628,-41.295 784.536,-41.295"/>
<polygon fill="#000000" stroke="#000000" points="784.7593,-44.7951 794.7593,-41.295 784.7592,-37.7951 784.7593,-44.7951"/>
</g>
</g>
</svg>