<?xml version="1.0" encoding="UTF-8" ?>
<svg xmlns="http://www.w3.org/2000/svg" xmlns:xlink="http://www.w3.org/1999/xlink" width="329pt" height="597pt" viewBox="0.00 0.00 328.64 596.84">
<g id="graph0" class="graph" transform="scale(1 1) rotate(0) translate(4 592.8427)">
<title>first_model</title>
<polygon fill="#ffffff" stroke="transparent" points="-4,4 -4,-592.8427 324.6379,-592.8427 324.6379,4 -4,4"/>
<!-- ndaaa2cba_1 -->
<g id="node1" class="node">
<title>ndaaa2cba_1</title>
<ellipse fill="#000000" stroke="#000000" cx="160.3189" cy="-587.0427" rx="1.8" ry="1.8"/>
</g>
<!-- ln_1 -->
<g id="node2" class="node">
<title>ln_1</title>
<ellipse fill="#f0f0f0" stroke="transparent" cx="160.3189" cy="-507.9477" rx="144.3328" ry="41.0911"/>
<text text-anchor="start" x="143.5973" y="-520.5477" font-family="Times,serif" font-size="14.00" fill="#000000">Login</text>
<text text-anchor="start" x="66.2011" y="-503.7477" font-family="Times,serif" font-size="14.00" fill="#444455">email: bob.marley@provego.com</text>
<text text-anchor="start" x="92.0871" y="-486.9477" font-family="Times,serif" font-size="14.00" fill="#444455">password: ishotthesherif</text>
</g>
<!-- ndaaa2cba_1&#45;&gt;ln_1 -->
<g id="edge1" class="edge">
<title>ndaaa2cba_1-&gt;ln_1</title>
<path fill="none" stroke="#000000" d="M160.3189,-585.0875C160.3189,-579.854 160.3189,-564.8755 160.3189,-549.4931"/>
</g>
<!-- n9b95c816_1 -->
<g id="node3" class="node">
<title>n9b95c816_1</title>
<ellipse fill="#000000" stroke="#000000" cx="160.3189" cy="-428.8526" rx="1.8" ry="1.8"/>
</g>
<!-- ln_1&#45;&gt;n9b95c816_1 -->
<g id="edge2" class="edge">
<title>ln_1-&gt;n9b95c816_1</title>
<path fill="none" stroke="#000000" d="M160.3189,-466.547C160.3189,-457.0719 160.3189,-447.7389 160.3189,-440.7301"/>
<polygon fill="#000000" stroke="#000000" points="163.819,-440.6913 160.3189,-430.6913 156.819,-440.6914 163.819,-440.6913"/>
</g>
<!-- ln_4 -->
<g id="node9" class="node">
<title>ln_4</title>
<ellipse fill="#f0f0f0" stroke="transparent" cx="160.3189" cy="-361.637" rx="151.5366" ry="29.3315"/>
<text text-anchor="start" x="106.6639" y="-365.837" font-family="Times,serif" font-size="14.00" fill="#000000">AddProductToCart</text>
<text text-anchor="start" x="61.1793" y="-349.037" font-family="Times,serif" font-size="14.00" fill="#444455">name: HUMMINGBIRD T-SHIRT</text>
</g>
<!-- n9b95c816_1&#45;&gt;ln_4 -->
<g id="edge7" class="edge">
<title>n9b95c816_1-&gt;ln_4</title>
<path fill="none" stroke="#000000" d="M160.3189,-426.9135C160.3189,-421.5323 160.3189,-405.843 160.3189,-391.1952"/>
</g>
<!-- n7c0fd16e_1 -->
<g id="node4" class="node">
<title>n7c0fd16e_1</title>
<ellipse fill="#000000" stroke="#000000" cx="160.3189" cy="-294.4214" rx="1.8" ry="1.8"/>
</g>
<!-- ln_2 -->
<g id="node5" class="node">
<title>ln_2</title>
<ellipse fill="#f0f0f0" stroke="transparent" cx="160.3189" cy="-227.2057" rx="160.1381" ry="29.3315"/>
<text text-anchor="start" x="106.6639" y="-231.4057" font-family="Times,serif" font-size="14.00" fill="#000000">AddProductToCart</text>
<text text-anchor="start" x="54.9563" y="-214.6057" font-family="Times,serif" font-size="14.00" fill="#444455">name: HUMMINGBIRD SWEATER</text>
</g>
<!-- n7c0fd16e_1&#45;&gt;ln_2 -->
<g id="edge3" class="edge">
<title>n7c0fd16e_1-&gt;ln_2</title>
<path fill="none" stroke="#000000" d="M160.3189,-292.4822C160.3189,-287.101 160.3189,-271.4118 160.3189,-256.7639"/>
</g>
<!-- nb7da03e9_1 -->
<g id="node6" class="node">
<title>nb7da03e9_1</title>
<ellipse fill="#000000" stroke="#000000" cx="160.3189" cy="-159.9901" rx="1.8" ry="1.8"/>
</g>
<!-- ln_2&#45;&gt;nb7da03e9_1 -->
<g id="edge4" class="edge">
<title>ln_2-&gt;nb7da03e9_1</title>
<path fill="none" stroke="#000000" d="M160.3189,-197.5283C160.3189,-188.4989 160.3189,-179.0857 160.3189,-171.9442"/>
<polygon fill="#000000" stroke="#000000" points="163.819,-171.9113 160.3189,-161.9113 156.819,-171.9113 163.819,-171.9113"/>
</g>
<!-- ln_3 -->
<g id="node7" class="node">
<title>ln_3</title>
<ellipse fill="#f0f0f0" stroke="transparent" cx="160.3189" cy="-80.895" rx="124.7081" ry="41.0911"/>
<text text-anchor="start" x="129.9907" y="-93.495" font-family="Times,serif" font-size="14.00" fill="#000000">Checkuout</text>
<text text-anchor="start" x="106.8697" y="-76.695" font-family="Times,serif" font-size="14.00" fill="#444455">defaultAdress: true</text>
<text text-anchor="start" x="80.0338" y="-59.895" font-family="Times,serif" font-size="14.00" fill="#444455">defaultPaymentMethod: true</text>
</g>
<!-- nb7da03e9_1&#45;&gt;ln_3 -->
<g id="edge5" class="edge">
<title>nb7da03e9_1-&gt;ln_3</title>
<path fill="none" stroke="#000000" d="M160.3189,-158.0349C160.3189,-152.8013 160.3189,-137.8229 160.3189,-122.4404"/>
</g>
<!-- n4a_1 -->
<g id="node8" class="node">
<title>n4a_1</title>
<ellipse fill="#000000" stroke="#000000" cx="160.3189" cy="-1.8" rx="1.8" ry="1.8"/>
</g>
<!-- ln_3&#45;&gt;n4a_1 -->
<g id="edge6" class="edge">
<title>ln_3-&gt;n4a_1</title>
<path fill="none" stroke="#000000" d="M160.3189,-39.4943C160.3189,-30.0192 160.3189,-20.6863 160.3189,-13.6774"/>
<polygon fill="#000000" stroke="#000000" points="163.819,-13.6387 160.3189,-3.6387 156.819,-13.6387 163.819,-13.6387"/>
</g>
<!-- ln_4&#45;&gt;n7c0fd16e_1 -->
<g id="edge8" class="edge">
<title>ln_4-&gt;n7c0fd16e_1</title>
<path fill="none" stroke="#000000" d="M160.3189,-331.9596C160.3189,-322.9301 160.3189,-313.517 160.3189,-306.3755"/>
<polygon fill="#000000" stroke="#000000" points="163.819,-306.3425 160.3189,-296.3426 156.819,-306.3426 163.819,-306.3425"/>
</g>
</g>
</svg>