<?xml version="1.0" encoding="UTF-8" ?>
<svg xmlns="http://www.w3.org/2000/svg" xmlns:xlink="http://www.w3.org/1999/xlink" width="1308pt" height="854pt" viewBox="0.00 0.00 1307.89 854.27">
<g id="graph0" class="graph" transform="scale(1 1) rotate(0) translate(4 850.2722)">
<title>first_model</title>
<polygon fill="#ffffff" stroke="transparent" points="-4,4 -4,-850.2722 1303.8896,-850.2722 1303.8896,4 -4,4"/>
<!-- nf98eed70_1 -->
<g id="node1" class="node">
<title>nf98eed70_1</title>
<ellipse fill="none" stroke="#338866" cx="925.1077" cy="-818.6113" rx="27.8228" ry="27.8228"/>
<text text-anchor="middle" x="925.1077" y="-814.4113" font-family="Times,serif" font-size="14.00" fill="#338866">start</text>
</g>
<!-- ln_10 -->
<g id="node19" class="node">
<title>ln_10</title>
<ellipse fill="#f0f0f0" stroke="transparent" cx="746.1077" cy="-713.6553" rx="195.564" ry="29.3315"/>
<text text-anchor="start" x="692.4527" y="-717.8553" font-family="Times,serif" font-size="14.00" fill="#000000">AddProductToCart</text>
<text text-anchor="start" x="615.669" y="-701.0553" font-family="Times,serif" font-size="14.00" fill="#444455">name: HUMMINGBIRD PRINTED T-SHIRT</text>
</g>
<!-- nf98eed70_1&#45;&gt;ln_10 -->
<g id="edge19" class="edge">
<title>nf98eed70_1-&gt;ln_10</title>
<path fill="none" stroke="#000000" d="M900.9669,-804.4565C873.8653,-788.5655 829.1827,-762.366 794.7616,-742.1834"/>
</g>
<!-- ln_11 -->
<g id="node20" class="node">
<title>ln_11</title>
<ellipse fill="#f0f0f0" stroke="transparent" cx="1104.1077" cy="-713.6553" rx="144.3328" ry="41.0911"/>
<text text-anchor="start" x="1087.3861" y="-726.2553" font-family="Times,serif" font-size="14.00" fill="#000000">Login</text>
<text text-anchor="start" x="1009.9899" y="-709.4553" font-family="Times,serif" font-size="14.00" fill="#444455">email: bob.marley@provego.com</text>
<text text-anchor="start" x="1035.8759" y="-692.6553" font-family="Times,serif" font-size="14.00" fill="#444455">password: ishotthesherif</text>
</g>
<!-- nf98eed70_1&#45;&gt;ln_11 -->
<g id="edge21" class="edge">
<title>nf98eed70_1-&gt;ln_11</title>
<path fill="none" stroke="#000000" d="M949.2484,-804.4565C972.6284,-790.7477 1009.0922,-769.3673 1040.7648,-750.7962"/>
</g>
<!-- n1777a486_1 -->
<g id="node2" class="node">
<title>n1777a486_1</title>
<ellipse fill="#000000" stroke="#000000" cx="202.1077" cy="-318.1801" rx="1.8" ry="1.8"/>
</g>
<!-- ln_1 -->
<g id="node3" class="node">
<title>ln_1</title>
<ellipse fill="#f0f0f0" stroke="transparent" cx="202.1077" cy="-239.0851" rx="144.3328" ry="41.0911"/>
<text text-anchor="start" x="185.3861" y="-251.6851" font-family="Times,serif" font-size="14.00" fill="#000000">Login</text>
<text text-anchor="start" x="107.9899" y="-234.8851" font-family="Times,serif" font-size="14.00" fill="#444455">email: bob.marley@provego.com</text>
<text text-anchor="start" x="133.8759" y="-218.0851" font-family="Times,serif" font-size="14.00" fill="#444455">password: ishotthesherif</text>
</g>
<!-- n1777a486_1&#45;&gt;ln_1 -->
<g id="edge1" class="edge">
<title>n1777a486_1-&gt;ln_1</title>
<path fill="none" stroke="#000000" d="M202.1077,-316.225C202.1077,-310.9914 202.1077,-296.013 202.1077,-280.6305"/>
</g>
<!-- n4122a2be_1 -->
<g id="node4" class="node">
<title>n4122a2be_1</title>
<ellipse fill="#000000" stroke="#000000" cx="384.1077" cy="-159.9901" rx="1.8" ry="1.8"/>
</g>
<!-- ln_1&#45;&gt;n4122a2be_1 -->
<g id="edge2" class="edge">
<title>ln_1-&gt;n4122a2be_1</title>
<path fill="none" stroke="#000000" d="M281.6708,-204.5079C317.1095,-189.1067 354.8995,-172.6836 373.0805,-164.7823"/>
<polygon fill="#000000" stroke="#000000" points="374.4884,-167.9868 382.2648,-160.791 371.6984,-161.5668 374.4884,-167.9868"/>
</g>
<!-- ln_9 -->
<g id="node17" class="node">
<title>ln_9</title>
<ellipse fill="#f0f0f0" stroke="transparent" cx="384.1077" cy="-80.895" rx="124.7081" ry="41.0911"/>
<text text-anchor="start" x="353.7795" y="-93.495" font-family="Times,serif" font-size="14.00" fill="#000000">Checkuout</text>
<text text-anchor="start" x="330.6585" y="-76.695" font-family="Times,serif" font-size="14.00" fill="#444455">defaultAdress: true</text>
<text text-anchor="start" x="303.8226" y="-59.895" font-family="Times,serif" font-size="14.00" fill="#444455">defaultPaymentMethod: true</text>
</g>
<!-- n4122a2be_1&#45;&gt;ln_9 -->
<g id="edge17" class="edge">
<title>n4122a2be_1-&gt;ln_9</title>
<path fill="none" stroke="#000000" d="M384.1077,-158.0349C384.1077,-152.8013 384.1077,-137.8229 384.1077,-122.4404"/>
</g>
<!-- n2339eba8_1 -->
<g id="node5" class="node">
<title>n2339eba8_1</title>
<ellipse fill="#000000" stroke="#000000" cx="1104.1077" cy="-634.5603" rx="1.8" ry="1.8"/>
</g>
<!-- ln_2 -->
<g id="node6" class="node">
<title>ln_2</title>
<ellipse fill="#f0f0f0" stroke="transparent" cx="1104.1077" cy="-555.4653" rx="195.564" ry="29.3315"/>
<text text-anchor="start" x="1050.4527" y="-559.6653" font-family="Times,serif" font-size="14.00" fill="#000000">AddProductToCart</text>
<text text-anchor="start" x="973.669" y="-542.8653" font-family="Times,serif" font-size="14.00" fill="#444455">name: HUMMINGBIRD PRINTED T-SHIRT</text>
</g>
<!-- n2339eba8_1&#45;&gt;ln_2 -->
<g id="edge3" class="edge">
<title>n2339eba8_1-&gt;ln_2</title>
<path fill="none" stroke="#000000" d="M1104.1077,-632.6051C1104.1077,-625.9918 1104.1077,-603.8181 1104.1077,-584.9314"/>
</g>
<!-- n24ef38a6_1 -->
<g id="node7" class="node">
<title>n24ef38a6_1</title>
<ellipse fill="#000000" stroke="#000000" cx="925.1077" cy="-476.3702" rx="1.8" ry="1.8"/>
</g>
<!-- ln_2&#45;&gt;n24ef38a6_1 -->
<g id="edge4" class="edge">
<title>ln_2-&gt;n24ef38a6_1</title>
<path fill="none" stroke="#000000" d="M1040.999,-527.5793C1002.475,-510.5566 956.7867,-490.3683 936.1722,-481.2593"/>
<polygon fill="#000000" stroke="#000000" points="937.5798,-478.0549 927.0183,-477.2145 934.7505,-484.4576 937.5798,-478.0549"/>
</g>
<!-- ln_5 -->
<g id="node12" class="node">
<title>ln_5</title>
<ellipse fill="#f0f0f0" stroke="transparent" cx="925.1077" cy="-397.2752" rx="195.564" ry="29.3315"/>
<text text-anchor="start" x="871.4527" y="-401.4752" font-family="Times,serif" font-size="14.00" fill="#000000">AddProductToCart</text>
<text text-anchor="start" x="794.669" y="-384.6752" font-family="Times,serif" font-size="14.00" fill="#444455">name: HUMMINGBIRD PRINTED T-SHIRT</text>
</g>
<!-- n24ef38a6_1&#45;&gt;ln_5 -->
<g id="edge9" class="edge">
<title>n24ef38a6_1-&gt;ln_5</title>
<path fill="none" stroke="#000000" d="M925.1077,-474.415C925.1077,-467.8017 925.1077,-445.628 925.1077,-426.7413"/>
</g>
<!-- ndbad720b_1 -->
<g id="node8" class="node">
<title>ndbad720b_1</title>
<ellipse fill="#000000" stroke="#000000" cx="388.1077" cy="-476.3702" rx="1.8" ry="1.8"/>
</g>
<!-- ln_3 -->
<g id="node9" class="node">
<title>ln_3</title>
<ellipse fill="#f0f0f0" stroke="transparent" cx="202.1077" cy="-397.2752" rx="202.2154" ry="29.3315"/>
<text text-anchor="start" x="148.4527" y="-401.4752" font-family="Times,serif" font-size="14.00" fill="#000000">AddProductToCart</text>
<text text-anchor="start" x="67.196" y="-384.6752" font-family="Times,serif" font-size="14.00" fill="#444455">name: HUMMINGBIRD PRINTEDSWEATER</text>
</g>
<!-- ndbad720b_1&#45;&gt;ln_3 -->
<g id="edge5" class="edge">
<title>ndbad720b_1-&gt;ln_3</title>
<path fill="none" stroke="#000000" d="M386.0188,-475.4819C374.3248,-470.5092 315.7863,-445.6161 267.8479,-425.2307"/>
</g>
<!-- ln_4 -->
<g id="node10" class="node">
<title>ln_4</title>
<ellipse fill="#f0f0f0" stroke="transparent" cx="567.1077" cy="-397.2752" rx="144.3328" ry="41.0911"/>
<text text-anchor="start" x="550.3861" y="-409.8752" font-family="Times,serif" font-size="14.00" fill="#000000">Login</text>
<text text-anchor="start" x="472.9899" y="-393.0752" font-family="Times,serif" font-size="14.00" fill="#444455">email: bob.marley@provego.com</text>
<text text-anchor="start" x="498.8759" y="-376.2752" font-family="Times,serif" font-size="14.00" fill="#444455">password: ishotthesherif</text>
</g>
<!-- ndbad720b_1&#45;&gt;ln_4 -->
<g id="edge7" class="edge">
<title>ndbad720b_1-&gt;ln_4</title>
<path fill="none" stroke="#000000" d="M390.1179,-475.4819C400.1427,-471.0523 445.9397,-450.8159 488.4329,-432.0393"/>
</g>
<!-- ln_3&#45;&gt;n1777a486_1 -->
<g id="edge6" class="edge">
<title>ln_3-&gt;n1777a486_1</title>
<path fill="none" stroke="#000000" d="M202.1077,-367.8231C202.1077,-354.7784 202.1077,-340.1632 202.1077,-330.1889"/>
<polygon fill="#000000" stroke="#000000" points="205.6078,-330.0476 202.1077,-320.0477 198.6078,-330.0477 205.6078,-330.0476"/>
</g>
<!-- n5587043_1 -->
<g id="node11" class="node">
<title>n5587043_1</title>
<ellipse fill="#000000" stroke="#000000" cx="567.1077" cy="-318.1801" rx="1.8" ry="1.8"/>
</g>
<!-- ln_4&#45;&gt;n5587043_1 -->
<g id="edge8" class="edge">
<title>ln_4-&gt;n5587043_1</title>
<path fill="none" stroke="#000000" d="M567.1077,-355.8745C567.1077,-346.3994 567.1077,-337.0664 567.1077,-330.0576"/>
<polygon fill="#000000" stroke="#000000" points="570.6078,-330.0188 567.1077,-320.0188 563.6078,-330.0189 570.6078,-330.0188"/>
</g>
<!-- ln_8 -->
<g id="node16" class="node">
<title>ln_8</title>
<ellipse fill="#f0f0f0" stroke="transparent" cx="567.1077" cy="-239.0851" rx="202.2154" ry="29.3315"/>
<text text-anchor="start" x="513.4527" y="-243.2851" font-family="Times,serif" font-size="14.00" fill="#000000">AddProductToCart</text>
<text text-anchor="start" x="432.196" y="-226.4851" font-family="Times,serif" font-size="14.00" fill="#444455">name: HUMMINGBIRD PRINTEDSWEATER</text>
</g>
<!-- n5587043_1&#45;&gt;ln_8 -->
<g id="edge15" class="edge">
<title>n5587043_1-&gt;ln_8</title>
<path fill="none" stroke="#000000" d="M567.1077,-316.225C567.1077,-309.6116 567.1077,-287.438 567.1077,-268.5512"/>
</g>
<!-- ln_5&#45;&gt;n5587043_1 -->
<g id="edge10" class="edge">
<title>ln_5-&gt;n5587043_1</title>
<path fill="none" stroke="#000000" d="M814.7747,-372.8987C728.06,-353.7403 616.0039,-328.9831 579.3182,-320.8779"/>
<polygon fill="#000000" stroke="#000000" points="579.678,-317.373 569.1583,-318.6332 578.1678,-324.2082 579.678,-317.373"/>
</g>
<!-- nfb443a6e_1 -->
<g id="node13" class="node">
<title>nfb443a6e_1</title>
<ellipse fill="#000000" stroke="#000000" cx="746.1077" cy="-634.5603" rx="1.8" ry="1.8"/>
</g>
<!-- ln_6 -->
<g id="node14" class="node">
<title>ln_6</title>
<ellipse fill="#f0f0f0" stroke="transparent" cx="388.1077" cy="-555.4653" rx="195.564" ry="29.3315"/>
<text text-anchor="start" x="334.4527" y="-559.6653" font-family="Times,serif" font-size="14.00" fill="#000000">AddProductToCart</text>
<text text-anchor="start" x="257.669" y="-542.8653" font-family="Times,serif" font-size="14.00" fill="#444455">name: HUMMINGBIRD PRINTED T-SHIRT</text>
</g>
<!-- nfb443a6e_1&#45;&gt;ln_6 -->
<g id="edge11" class="edge">
<title>nfb443a6e_1-&gt;ln_6</title>
<path fill="none" stroke="#000000" d="M744.1815,-634.1347C726.8727,-630.3106 596.4768,-601.5015 498.454,-579.8447"/>
</g>
<!-- ln_7 -->
<g id="node15" class="node">
<title>ln_7</title>
<ellipse fill="#f0f0f0" stroke="transparent" cx="746.1077" cy="-555.4653" rx="144.3328" ry="41.0911"/>
<text text-anchor="start" x="729.3861" y="-568.0653" font-family="Times,serif" font-size="14.00" fill="#000000">Login</text>
<text text-anchor="start" x="651.9899" y="-551.2653" font-family="Times,serif" font-size="14.00" fill="#444455">email: bob.marley@provego.com</text>
<text text-anchor="start" x="677.8759" y="-534.4653" font-family="Times,serif" font-size="14.00" fill="#444455">password: ishotthesherif</text>
</g>
<!-- nfb443a6e_1&#45;&gt;ln_7 -->
<g id="edge13" class="edge">
<title>nfb443a6e_1-&gt;ln_7</title>
<path fill="none" stroke="#000000" d="M746.1077,-632.6051C746.1077,-627.3715 746.1077,-612.3931 746.1077,-597.0106"/>
</g>
<!-- ln_6&#45;&gt;ndbad720b_1 -->
<g id="edge12" class="edge">
<title>ln_6-&gt;ndbad720b_1</title>
<path fill="none" stroke="#000000" d="M388.1077,-526.0132C388.1077,-512.9685 388.1077,-498.3533 388.1077,-488.379"/>
<polygon fill="#000000" stroke="#000000" points="391.6078,-488.2377 388.1077,-478.2377 384.6078,-488.2378 391.6078,-488.2377"/>
</g>
<!-- ln_7&#45;&gt;n24ef38a6_1 -->
<g id="edge14" class="edge">
<title>ln_7-&gt;n24ef38a6_1</title>
<path fill="none" stroke="#000000" d="M824.6197,-520.773C859.2555,-505.4684 896.1203,-489.1789 914.0408,-481.2603"/>
<polygon fill="#000000" stroke="#000000" points="915.5693,-484.4115 923.3015,-477.1683 912.7401,-478.0087 915.5693,-484.4115"/>
</g>
<!-- ln_8&#45;&gt;n4122a2be_1 -->
<g id="edge16" class="edge">
<title>ln_8-&gt;n4122a2be_1</title>
<path fill="none" stroke="#000000" d="M502.5887,-211.1992C463.0479,-194.1091 416.1245,-173.8282 395.1703,-164.7715"/>
<polygon fill="#000000" stroke="#000000" points="396.3454,-161.4665 385.7775,-160.7118 393.5682,-167.892 396.3454,-161.4665"/>
</g>
<!-- n4a_1 -->
<g id="node18" class="node">
<title>n4a_1</title>
<ellipse fill="#000000" stroke="#000000" cx="384.1077" cy="-1.8" rx="1.8" ry="1.8"/>
</g>
<!-- ln_9&#45;&gt;n4a_1 -->
<g id="edge18" class="edge">
<title>ln_9-&gt;n4a_1</title>
<path fill="none" stroke="#000000" d="M384.1077,-39.4943C384.1077,-30.0192 384.1077,-20.6863 384.1077,-13.6774"/>
<polygon fill="#000000" stroke="#000000" points="387.6078,-13.6387 384.1077,-3.6387 380.6078,-13.6387 387.6078,-13.6387"/>
</g>
<!-- ln_10&#45;&gt;nfb443a6e_1 -->
<g id="edge20" class="edge">
<title>ln_10-&gt;nfb443a6e_1</title>
<path fill="none" stroke="#000000" d="M746.1077,-684.2033C746.1077,-671.1585 746.1077,-656.5433 746.1077,-646.5691"/>
<polygon fill="#000000" stroke="#000000" points="749.6078,-646.4278 746.1077,-636.4278 742.6078,-646.4278 749.6078,-646.4278"/>
</g>
<!-- ln_11&#45;&gt;n2339eba8_1 -->
<g id="edge22" class="edge">
<title>ln_11-&gt;n2339eba8_1</title>
<path fill="none" stroke="#000000" d="M1104.1077,-672.2546C1104.1077,-662.7795 1104.1077,-653.4465 1104.1077,-646.4377"/>
<polygon fill="#000000" stroke="#000000" points="1107.6078,-646.399 1104.1077,-636.399 1100.6078,-646.399 1107.6078,-646.399"/>
</g>
</g>
</svg>