<?xml version="1.0" encoding="UTF-8" ?>
<svg xmlns="http://www.w3.org/2000/svg" xmlns:xlink="http://www.w3.org/1999/xlink" width="1394pt" height="854pt" viewBox="0.00 0.00 1394.20 854.27">
<g id="graph0" class="graph" transform="scale(1 1) rotate(0) translate(4 850.2722)">
<title>first_model</title>
<polygon fill="#ffffff" stroke="transparent" points="-4,4 -4,-850.2722 1390.1983,-850.2722 1390.1983,4 -4,4"/>
<!-- n7796bc70_1 -->
<g id="node1" class="node">
<title>n7796bc70_1</title>
<ellipse fill="none" stroke="#338866" cx="1011.4164" cy="-818.6113" rx="27.8228" ry="27.8228"/>
<text text-anchor="middle" x="1011.4164" y="-814.4113" font-family="Times,serif" font-size="14.00" fill="#338866">start</text>
</g>
<!-- ln_4 -->
<g id="node9" class="node">
<title>ln_4</title>
<ellipse fill="#f0f0f0" stroke="transparent" cx="832.4164" cy="-713.6553" rx="195.564" ry="29.3315"/>
<text text-anchor="start" x="778.7614" y="-717.8553" font-family="Times,serif" font-size="14.00" fill="#000000">AddProductToCart</text>
<text text-anchor="start" x="701.9777" y="-701.0553" font-family="Times,serif" font-size="14.00" fill="#444455">name: HUMMINGBIRD PRINTED T-SHIRT</text>
</g>
<!-- n7796bc70_1&#45;&gt;ln_4 -->
<g id="edge7" class="edge">
<title>n7796bc70_1-&gt;ln_4</title>
<path fill="none" stroke="#000000" d="M987.2756,-804.4565C960.174,-788.5655 915.4914,-762.366 881.0703,-742.1834"/>
</g>
<!-- ln_5 -->
<g id="node10" class="node">
<title>ln_5</title>
<ellipse fill="#f0f0f0" stroke="transparent" cx="1190.4164" cy="-713.6553" rx="144.3328" ry="41.0911"/>
<text text-anchor="start" x="1173.6948" y="-726.2553" font-family="Times,serif" font-size="14.00" fill="#000000">Login</text>
<text text-anchor="start" x="1096.2986" y="-709.4553" font-family="Times,serif" font-size="14.00" fill="#444455">email: bob.marley@provego.com</text>
<text text-anchor="start" x="1122.1846" y="-692.6553" font-family="Times,serif" font-size="14.00" fill="#444455">password: ishotthesherif</text>
</g>
<!-- n7796bc70_1&#45;&gt;ln_5 -->
<g id="edge9" class="edge">
<title>n7796bc70_1-&gt;ln_5</title>
<path fill="none" stroke="#000000" d="M1035.5571,-804.4565C1058.9371,-790.7477 1095.4009,-769.3673 1127.0735,-750.7962"/>
</g>
<!-- n794c096e_1 -->
<g id="node2" class="node">
<title>n794c096e_1</title>
<ellipse fill="#000000" stroke="#000000" cx="832.4164" cy="-634.5603" rx="1.8" ry="1.8"/>
</g>
<!-- ln_1 -->
<g id="node3" class="node">
<title>ln_1</title>
<ellipse fill="#f0f0f0" stroke="transparent" cx="474.4164" cy="-555.4653" rx="195.564" ry="29.3315"/>
<text text-anchor="start" x="420.7614" y="-559.6653" font-family="Times,serif" font-size="14.00" fill="#000000">AddProductToCart</text>
<text text-anchor="start" x="343.9777" y="-542.8653" font-family="Times,serif" font-size="14.00" fill="#444455">name: HUMMINGBIRD PRINTED T-SHIRT</text>
</g>
<!-- n794c096e_1&#45;&gt;ln_1 -->
<g id="edge1" class="edge">
<title>n794c096e_1-&gt;ln_1</title>
<path fill="none" stroke="#000000" d="M830.4902,-634.1347C813.1814,-630.3106 682.7855,-601.5015 584.7627,-579.8447"/>
</g>
<!-- ln_2 -->
<g id="node5" class="node">
<title>ln_2</title>
<ellipse fill="#f0f0f0" stroke="transparent" cx="832.4164" cy="-555.4653" rx="144.3328" ry="41.0911"/>
<text text-anchor="start" x="815.6948" y="-568.0653" font-family="Times,serif" font-size="14.00" fill="#000000">Login</text>
<text text-anchor="start" x="738.2986" y="-551.2653" font-family="Times,serif" font-size="14.00" fill="#444455">email: bob.marley@provego.com</text>
<text text-anchor="start" x="764.1846" y="-534.4653" font-family="Times,serif" font-size="14.00" fill="#444455">password: ishotthesherif</text>
</g>
<!-- n794c096e_1&#45;&gt;ln_2 -->
<g id="edge3" class="edge">
<title>n794c096e_1-&gt;ln_2</title>
<path fill="none" stroke="#000000" d="M832.4164,-632.6051C832.4164,-627.3715 832.4164,-612.3931 832.4164,-597.0106"/>
</g>
<!-- n59b5410b_1 -->
<g id="node4" class="node">
<title>n59b5410b_1</title>
<ellipse fill="#000000" stroke="#000000" cx="474.4164" cy="-476.3702" rx="1.8" ry="1.8"/>
</g>
<!-- ln_1&#45;&gt;n59b5410b_1 -->
<g id="edge2" class="edge">
<title>ln_1-&gt;n59b5410b_1</title>
<path fill="none" stroke="#000000" d="M474.4164,-526.0132C474.4164,-512.9685 474.4164,-498.3533 474.4164,-488.379"/>
<polygon fill="#000000" stroke="#000000" points="477.9165,-488.2377 474.4164,-478.2377 470.9165,-488.2378 477.9165,-488.2377"/>
</g>
<!-- ln_11 -->
<g id="node21" class="node">
<title>ln_11</title>
<ellipse fill="#f0f0f0" stroke="transparent" cx="288.4164" cy="-397.2752" rx="202.2154" ry="29.3315"/>
<text text-anchor="start" x="234.7614" y="-401.4752" font-family="Times,serif" font-size="14.00" fill="#000000">AddProductToCart</text>
<text text-anchor="start" x="153.5047" y="-384.6752" font-family="Times,serif" font-size="14.00" fill="#444455">name: HUMMINGBIRD PRINTEDSWEATER</text>
</g>
<!-- n59b5410b_1&#45;&gt;ln_11 -->
<g id="edge21" class="edge">
<title>n59b5410b_1-&gt;ln_11</title>
<path fill="none" stroke="#000000" d="M472.3275,-475.4819C460.6335,-470.5092 402.095,-445.6161 354.1566,-425.2307"/>
</g>
<!-- ln_12 -->
<g id="node22" class="node">
<title>ln_12</title>
<ellipse fill="#f0f0f0" stroke="transparent" cx="653.4164" cy="-397.2752" rx="144.3328" ry="41.0911"/>
<text text-anchor="start" x="636.6948" y="-409.8752" font-family="Times,serif" font-size="14.00" fill="#000000">Login</text>
<text text-anchor="start" x="559.2986" y="-393.0752" font-family="Times,serif" font-size="14.00" fill="#444455">email: bob.marley@provego.com</text>
<text text-anchor="start" x="585.1846" y="-376.2752" font-family="Times,serif" font-size="14.00" fill="#444455">password: ishotthesherif</text>
</g>
<!-- n59b5410b_1&#45;&gt;ln_12 -->
<g id="edge23" class="edge">
<title>n59b5410b_1-&gt;ln_12</title>
<path fill="none" stroke="#000000" d="M476.4266,-475.4819C486.4514,-471.0523 532.2484,-450.8159 574.7416,-432.0393"/>
</g>
<!-- nf55b266d_1 -->
<g id="node6" class="node">
<title>nf55b266d_1</title>
<ellipse fill="#000000" stroke="#000000" cx="1011.4164" cy="-476.3702" rx="1.8" ry="1.8"/>
</g>
<!-- ln_2&#45;&gt;nf55b266d_1 -->
<g id="edge4" class="edge">
<title>ln_2-&gt;nf55b266d_1</title>
<path fill="none" stroke="#000000" d="M910.9284,-520.773C945.5642,-505.4684 982.429,-489.1789 1000.3495,-481.2603"/>
<polygon fill="#000000" stroke="#000000" points="1001.878,-484.4115 1009.6102,-477.1683 999.0488,-478.0087 1001.878,-484.4115"/>
</g>
<!-- ln_3 -->
<g id="node7" class="node">
<title>ln_3</title>
<ellipse fill="#f0f0f0" stroke="transparent" cx="1011.4164" cy="-397.2752" rx="195.564" ry="29.3315"/>
<text text-anchor="start" x="957.7614" y="-401.4752" font-family="Times,serif" font-size="14.00" fill="#000000">AddProductToCart</text>
<text text-anchor="start" x="880.9777" y="-384.6752" font-family="Times,serif" font-size="14.00" fill="#444455">name: HUMMINGBIRD PRINTED T-SHIRT</text>
</g>
<!-- nf55b266d_1&#45;&gt;ln_3 -->
<g id="edge5" class="edge">
<title>nf55b266d_1-&gt;ln_3</title>
<path fill="none" stroke="#000000" d="M1011.4164,-474.415C1011.4164,-467.8017 1011.4164,-445.628 1011.4164,-426.7413"/>
</g>
<!-- nd5c45e0a_1 -->
<g id="node8" class="node">
<title>nd5c45e0a_1</title>
<ellipse fill="#000000" stroke="#000000" cx="796.4164" cy="-318.1801" rx="1.8" ry="1.8"/>
</g>
<!-- ln_3&#45;&gt;nd5c45e0a_1 -->
<g id="edge6" class="edge">
<title>ln_3-&gt;nd5c45e0a_1</title>
<path fill="none" stroke="#000000" d="M937.1245,-369.9444C889.3856,-352.382 831.9579,-331.2553 807.8984,-322.4042"/>
<polygon fill="#000000" stroke="#000000" points="809.0031,-319.0813 798.4096,-318.9134 806.5862,-325.6509 809.0031,-319.0813"/>
</g>
<!-- ln_13 -->
<g id="node23" class="node">
<title>ln_13</title>
<ellipse fill="#f0f0f0" stroke="transparent" cx="796.4164" cy="-239.0851" rx="202.2154" ry="29.3315"/>
<text text-anchor="start" x="742.7614" y="-243.2851" font-family="Times,serif" font-size="14.00" fill="#000000">AddProductToCart</text>
<text text-anchor="start" x="661.5047" y="-226.4851" font-family="Times,serif" font-size="14.00" fill="#444455">name: HUMMINGBIRD PRINTEDSWEATER</text>
</g>
<!-- nd5c45e0a_1&#45;&gt;ln_13 -->
<g id="edge25" class="edge">
<title>nd5c45e0a_1-&gt;ln_13</title>
<path fill="none" stroke="#000000" d="M796.4164,-316.225C796.4164,-309.6116 796.4164,-287.438 796.4164,-268.5512"/>
</g>
<!-- ln_4&#45;&gt;n794c096e_1 -->
<g id="edge8" class="edge">
<title>ln_4-&gt;n794c096e_1</title>
<path fill="none" stroke="#000000" d="M832.4164,-684.2033C832.4164,-671.1585 832.4164,-656.5433 832.4164,-646.5691"/>
<polygon fill="#000000" stroke="#000000" points="835.9165,-646.4278 832.4164,-636.4278 828.9165,-646.4278 835.9165,-646.4278"/>
</g>
<!-- nf3a5d96f_1 -->
<g id="node11" class="node">
<title>nf3a5d96f_1</title>
<ellipse fill="#000000" stroke="#000000" cx="1190.4164" cy="-634.5603" rx="1.8" ry="1.8"/>
</g>
<!-- ln_5&#45;&gt;nf3a5d96f_1 -->
<g id="edge10" class="edge">
<title>ln_5-&gt;nf3a5d96f_1</title>
<path fill="none" stroke="#000000" d="M1190.4164,-672.2546C1190.4164,-662.7795 1190.4164,-653.4465 1190.4164,-646.4377"/>
<polygon fill="#000000" stroke="#000000" points="1193.9165,-646.399 1190.4164,-636.399 1186.9165,-646.399 1193.9165,-646.399"/>
</g>
<!-- ln_8 -->
<g id="node17" class="node">
<title>ln_8</title>
<ellipse fill="#f0f0f0" stroke="transparent" cx="1190.4164" cy="-555.4653" rx="195.564" ry="29.3315"/>
<text text-anchor="start" x="1136.7614" y="-559.6653" font-family="Times,serif" font-size="14.00" fill="#000000">AddProductToCart</text>
<text text-anchor="start" x="1059.9777" y="-542.8653" font-family="Times,serif" font-size="14.00" fill="#444455">name: HUMMINGBIRD PRINTED T-SHIRT</text>
</g>
<!-- nf3a5d96f_1&#45;&gt;ln_8 -->
<g id="edge15" class="edge">
<title>nf3a5d96f_1-&gt;ln_8</title>
<path fill="none" stroke="#000000" d="M1190.4164,-632.6051C1190.4164,-625.9918 1190.4164,-603.8181 1190.4164,-584.9314"/>
</g>
<!-- n957f7386_1 -->
<g id="node12" class="node">
<title>n957f7386_1</title>
<ellipse fill="#000000" stroke="#000000" cx="288.4164" cy="-318.1801" rx="1.8" ry="1.8"/>
</g>
<!-- ln_6 -->
<g id="node13" class="node">
<title>ln_6</title>
<ellipse fill="#f0f0f0" stroke="transparent" cx="144.4164" cy="-239.0851" rx="124.7081" ry="41.0911"/>
<text text-anchor="start" x="114.0882" y="-251.6851" font-family="Times,serif" font-size="14.00" fill="#000000">Checkuout</text>
<text text-anchor="start" x="90.9672" y="-234.8851" font-family="Times,serif" font-size="14.00" fill="#444455">defaultAdress: true</text>
<text text-anchor="start" x="64.1313" y="-218.0851" font-family="Times,serif" font-size="14.00" fill="#444455">defaultPaymentMethod: true</text>
</g>
<!-- n957f7386_1&#45;&gt;ln_6 -->
<g id="edge11" class="edge">
<title>n957f7386_1-&gt;ln_6</title>
<path fill="none" stroke="#000000" d="M286.7992,-317.2919C278.8272,-312.9131 242.7355,-293.0889 208.8876,-274.4973"/>
</g>
<!-- ln_7 -->
<g id="node15" class="node">
<title>ln_7</title>
<ellipse fill="#f0f0f0" stroke="transparent" cx="431.4164" cy="-239.0851" rx="144.3328" ry="41.0911"/>
<text text-anchor="start" x="414.6948" y="-251.6851" font-family="Times,serif" font-size="14.00" fill="#000000">Login</text>
<text text-anchor="start" x="337.2986" y="-234.8851" font-family="Times,serif" font-size="14.00" fill="#444455">email: bob.marley@provego.com</text>
<text text-anchor="start" x="363.1846" y="-218.0851" font-family="Times,serif" font-size="14.00" fill="#444455">password: ishotthesherif</text>
</g>
<!-- n957f7386_1&#45;&gt;ln_7 -->
<g id="edge13" class="edge">
<title>n957f7386_1-&gt;ln_7</title>
<path fill="none" stroke="#000000" d="M290.0223,-317.2919C297.7548,-313.0149 332.1281,-294.0026 365.0445,-275.7962"/>
</g>
<!-- n83f0e34b_1 -->
<g id="node14" class="node">
<title>n83f0e34b_1</title>
<ellipse fill="#000000" stroke="#000000" cx="144.4164" cy="-159.9901" rx="1.8" ry="1.8"/>
</g>
<!-- ln_6&#45;&gt;n83f0e34b_1 -->
<g id="edge12" class="edge">
<title>ln_6-&gt;n83f0e34b_1</title>
<path fill="none" stroke="#000000" d="M144.4164,-197.6844C144.4164,-188.2093 144.4164,-178.8763 144.4164,-171.8675"/>
<polygon fill="#000000" stroke="#000000" points="147.9165,-171.8287 144.4164,-161.8288 140.9165,-171.8288 147.9165,-171.8287"/>
</g>
<!-- ln_9 -->
<g id="node18" class="node">
<title>ln_9</title>
<ellipse fill="#f0f0f0" stroke="transparent" cx="144.4164" cy="-80.895" rx="144.3328" ry="41.0911"/>
<text text-anchor="start" x="127.6948" y="-93.495" font-family="Times,serif" font-size="14.00" fill="#000000">Login</text>
<text text-anchor="start" x="50.2986" y="-76.695" font-family="Times,serif" font-size="14.00" fill="#444455">email: bob.marley@provego.com</text>
<text text-anchor="start" x="76.1846" y="-59.895" font-family="Times,serif" font-size="14.00" fill="#444455">password: ishotthesherif</text>
</g>
<!-- n83f0e34b_1&#45;&gt;ln_9 -->
<g id="edge17" class="edge">
<title>n83f0e34b_1-&gt;ln_9</title>
<path fill="none" stroke="#000000" d="M144.4164,-158.0349C144.4164,-152.8013 144.4164,-137.8229 144.4164,-122.4404"/>
</g>
<!-- n118e9085_1 -->
<g id="node16" class="node">
<title>n118e9085_1</title>
<ellipse fill="#000000" stroke="#000000" cx="431.4164" cy="-159.9901" rx="1.8" ry="1.8"/>
</g>
<!-- ln_7&#45;&gt;n118e9085_1 -->
<g id="edge14" class="edge">
<title>ln_7-&gt;n118e9085_1</title>
<path fill="none" stroke="#000000" d="M431.4164,-197.6844C431.4164,-188.2093 431.4164,-178.8763 431.4164,-171.8675"/>
<polygon fill="#000000" stroke="#000000" points="434.9165,-171.8287 431.4164,-161.8288 427.9165,-171.8288 434.9165,-171.8287"/>
</g>
<!-- ln_10 -->
<g id="node20" class="node">
<title>ln_10</title>
<ellipse fill="#f0f0f0" stroke="transparent" cx="431.4164" cy="-80.895" rx="124.7081" ry="41.0911"/>
<text text-anchor="start" x="401.0882" y="-93.495" font-family="Times,serif" font-size="14.00" fill="#000000">Checkuout</text>
<text text-anchor="start" x="377.9672" y="-76.695" font-family="Times,serif" font-size="14.00" fill="#444455">defaultAdress: true</text>
<text text-anchor="start" x="351.1313" y="-59.895" font-family="Times,serif" font-size="14.00" fill="#444455">defaultPaymentMethod: true</text>
</g>
<!-- n118e9085_1&#45;&gt;ln_10 -->
<g id="edge19" class="edge">
<title>n118e9085_1-&gt;ln_10</title>
<path fill="none" stroke="#000000" d="M431.4164,-158.0349C431.4164,-152.8013 431.4164,-137.8229 431.4164,-122.4404"/>
</g>
<!-- ln_8&#45;&gt;nf55b266d_1 -->
<g id="edge16" class="edge">
<title>ln_8-&gt;nf55b266d_1</title>
<path fill="none" stroke="#000000" d="M1127.3077,-527.5793C1088.7837,-510.5566 1043.0954,-490.3683 1022.4809,-481.2593"/>
<polygon fill="#000000" stroke="#000000" points="1023.8885,-478.0549 1013.327,-477.2145 1021.0592,-484.4576 1023.8885,-478.0549"/>
</g>
<!-- n4a_1 -->
<g id="node19" class="node">
<title>n4a_1</title>
<ellipse fill="#000000" stroke="#000000" cx="287.4164" cy="-1.8" rx="1.8" ry="1.8"/>
</g>
<!-- ln_9&#45;&gt;n4a_1 -->
<g id="edge18" class="edge">
<title>ln_9-&gt;n4a_1</title>
<path fill="none" stroke="#000000" d="M210.8927,-44.1262C236.1653,-30.1476 262.2789,-15.7038 276.5204,-7.8267"/>
<polygon fill="#000000" stroke="#000000" points="278.6033,-10.6744 285.6599,-2.7715 275.2152,-4.5489 278.6033,-10.6744"/>
</g>
<!-- ln_10&#45;&gt;n4a_1 -->
<g id="edge20" class="edge">
<title>ln_10-&gt;n4a_1</title>
<path fill="none" stroke="#000000" d="M366.9976,-45.5117C340.7881,-31.1156 313.2236,-15.9751 298.4043,-7.8353"/>
<polygon fill="#000000" stroke="#000000" points="299.7132,-4.5611 289.2633,-2.8145 296.3432,-10.6965 299.7132,-4.5611"/>
</g>
<!-- ln_11&#45;&gt;n957f7386_1 -->
<g id="edge22" class="edge">
<title>ln_11-&gt;n957f7386_1</title>
<path fill="none" stroke="#000000" d="M288.4164,-367.8231C288.4164,-354.7784 288.4164,-340.1632 288.4164,-330.1889"/>
<polygon fill="#000000" stroke="#000000" points="291.9165,-330.0476 288.4164,-320.0477 284.9165,-330.0477 291.9165,-330.0476"/>
</g>
<!-- ln_12&#45;&gt;nd5c45e0a_1 -->
<g id="edge24" class="edge">
<title>ln_12-&gt;nd5c45e0a_1</title>
<path fill="none" stroke="#000000" d="M719.8927,-360.5063C745.1653,-346.5278 771.2789,-332.084 785.5204,-324.2068"/>
<polygon fill="#000000" stroke="#000000" points="787.6033,-327.0545 794.6599,-319.1517 784.2152,-320.9291 787.6033,-327.0545"/>
</g>
<!-- ln_13&#45;&gt;n118e9085_1 -->
<g id="edge26" class="edge">
<title>ln_13-&gt;n118e9085_1</title>
<path fill="none" stroke="#000000" d="M683.4277,-214.6006C594.6685,-195.3666 480.1189,-170.5438 443.3403,-162.574"/>
<polygon fill="#000000" stroke="#000000" points="444.0152,-159.1391 433.5008,-160.4418 442.5327,-165.9803 444.0152,-159.1391"/>
</g>
</g>
</svg>