<?xml version="1.0" encoding="UTF-8" ?>
<svg xmlns="http://www.w3.org/2000/svg" xmlns:xlink="http://www.w3.org/1999/xlink" width="566pt" height="870pt" viewBox="0.00 0.00 566.39 869.91">
<g id="graph0" class="graph" transform="scale(1 1) rotate(0) translate(4 865.9096)">
<title>first_model</title>
<polygon fill="#ffffff" stroke="transparent" points="-4,4 -4,-865.9096 562.3867,-865.9096 562.3867,4 -4,4"/>
<!-- n75414a32_1 -->
<g id="node1" class="node">
<title>n75414a32_1</title>
<ellipse fill="none" stroke="#338866" cx="183.1933" cy="-834.2486" rx="27.8228" ry="27.8228"/>
<text text-anchor="middle" x="183.1933" y="-830.0486" font-family="Times,serif" font-size="14.00" fill="#338866">start</text>
</g>
<!-- ln_3 -->
<g id="node8" class="node">
<title>ln_3</title>
<ellipse fill="#f0f0f0" stroke="transparent" cx="183.1933" cy="-741.1721" rx="87.3871" ry="29.3315"/>
<text text-anchor="start" x="129.5383" y="-745.3721" font-family="Times,serif" font-size="14.00" fill="#000000">AddProductToCart</text>
<text text-anchor="start" x="159.2848" y="-728.5721" font-family="Times,serif" font-size="14.00" fill="#444455">name: A</text>
</g>
<!-- n75414a32_1&#45;&gt;ln_3 -->
<g id="edge5" class="edge">
<title>n75414a32_1-&gt;ln_3</title>
<path fill="none" stroke="#000000" d="M183.1933,-806.5746C183.1933,-795.3214 183.1933,-782.2968 183.1933,-770.847"/>
</g>
<!-- nd14d3cdc_1 -->
<g id="node2" class="node">
<title>nd14d3cdc_1</title>
<ellipse fill="#000000" stroke="#000000" cx="87.1933" cy="-539.5251" rx="1.8" ry="1.8"/>
</g>
<!-- ln_1 -->
<g id="node3" class="node">
<title>ln_1</title>
<ellipse fill="#f0f0f0" stroke="transparent" cx="87.1933" cy="-472.3095" rx="87.3871" ry="29.3315"/>
<text text-anchor="start" x="33.5383" y="-476.5095" font-family="Times,serif" font-size="14.00" fill="#000000">AddProductToCart</text>
<text text-anchor="start" x="63.6698" y="-459.7095" font-family="Times,serif" font-size="14.00" fill="#444455">name: B</text>
</g>
<!-- nd14d3cdc_1&#45;&gt;ln_1 -->
<g id="edge1" class="edge">
<title>nd14d3cdc_1-&gt;ln_1</title>
<path fill="none" stroke="#000000" d="M87.1933,-537.586C87.1933,-532.2048 87.1933,-516.5155 87.1933,-501.8677"/>
</g>
<!-- nffc6548_1 -->
<g id="node4" class="node">
<title>nffc6548_1</title>
<ellipse fill="#000000" stroke="#000000" cx="183.1933" cy="-405.0939" rx="1.8" ry="1.8"/>
</g>
<!-- ln_1&#45;&gt;nffc6548_1 -->
<g id="edge2" class="edge">
<title>ln_1-&gt;nffc6548_1</title>
<path fill="none" stroke="#000000" d="M125.1351,-445.7441C142.4302,-433.6347 161.5494,-420.2481 172.9566,-412.2612"/>
<polygon fill="#000000" stroke="#000000" points="175.2557,-414.9242 181.4399,-406.3215 171.2408,-409.19 175.2557,-414.9242"/>
</g>
<!-- ln_4 -->
<g id="node10" class="node">
<title>ln_4</title>
<ellipse fill="#f0f0f0" stroke="transparent" cx="87.1933" cy="-337.8782" rx="87.3871" ry="29.3315"/>
<text text-anchor="start" x="33.5383" y="-342.0782" font-family="Times,serif" font-size="14.00" fill="#000000">AddProductToCart</text>
<text text-anchor="start" x="64.8381" y="-325.2782" font-family="Times,serif" font-size="14.00" fill="#444455">name: 2</text>
</g>
<!-- nffc6548_1&#45;&gt;ln_4 -->
<g id="edge7" class="edge">
<title>nffc6548_1-&gt;ln_4</title>
<path fill="none" stroke="#000000" d="M181.5271,-403.9272C174.7299,-399.1681 148.3617,-380.706 125.2256,-364.507"/>
</g>
<!-- ln_5 -->
<g id="node12" class="node">
<title>ln_5</title>
<ellipse fill="#f0f0f0" stroke="transparent" cx="279.1933" cy="-337.8782" rx="87.3871" ry="29.3315"/>
<text text-anchor="start" x="225.5383" y="-342.0782" font-family="Times,serif" font-size="14.00" fill="#000000">AddProductToCart</text>
<text text-anchor="start" x="255.6698" y="-325.2782" font-family="Times,serif" font-size="14.00" fill="#444455">name: C</text>
</g>
<!-- nffc6548_1&#45;&gt;ln_5 -->
<g id="edge9" class="edge">
<title>nffc6548_1-&gt;ln_5</title>
<path fill="none" stroke="#000000" d="M184.8596,-403.9272C191.6568,-399.1681 218.025,-380.706 241.1611,-364.507"/>
</g>
<!-- n19fb501a_1 -->
<g id="node5" class="node">
<title>n19fb501a_1</title>
<ellipse fill="#000000" stroke="#000000" cx="183.1933" cy="-136.2313" rx="1.8" ry="1.8"/>
</g>
<!-- ln_2 -->
<g id="node6" class="node">
<title>ln_2</title>
<ellipse fill="#f0f0f0" stroke="transparent" cx="183.1933" cy="-69.0156" rx="87.3871" ry="29.3315"/>
<text text-anchor="start" x="129.5383" y="-73.2156" font-family="Times,serif" font-size="14.00" fill="#000000">AddProductToCart</text>
<text text-anchor="start" x="160.8381" y="-56.4156" font-family="Times,serif" font-size="14.00" fill="#444455">name: 3</text>
</g>
<!-- n19fb501a_1&#45;&gt;ln_2 -->
<g id="edge3" class="edge">
<title>n19fb501a_1-&gt;ln_2</title>
<path fill="none" stroke="#000000" d="M183.1933,-134.2921C183.1933,-128.9109 183.1933,-113.2217 183.1933,-98.5738"/>
</g>
<!-- n4a_1 -->
<g id="node7" class="node">
<title>n4a_1</title>
<ellipse fill="#000000" stroke="#000000" cx="183.1933" cy="-1.8" rx="1.8" ry="1.8"/>
</g>
<!-- ln_2&#45;&gt;n4a_1 -->
<g id="edge4" class="edge">
<title>ln_2-&gt;n4a_1</title>
<path fill="none" stroke="#000000" d="M183.1933,-39.3382C183.1933,-30.3088 183.1933,-20.8956 183.1933,-13.7542"/>
<polygon fill="#000000" stroke="#000000" points="186.6934,-13.7212 183.1933,-3.7212 179.6934,-13.7212 186.6934,-13.7212"/>
</g>
<!-- n74cdae88_1 -->
<g id="node9" class="node">
<title>n74cdae88_1</title>
<ellipse fill="#000000" stroke="#000000" cx="183.1933" cy="-673.9564" rx="1.8" ry="1.8"/>
</g>
<!-- ln_3&#45;&gt;n74cdae88_1 -->
<g id="edge6" class="edge">
<title>ln_3-&gt;n74cdae88_1</title>
<path fill="none" stroke="#000000" d="M183.1933,-711.4946C183.1933,-702.4652 183.1933,-693.052 183.1933,-685.9106"/>
<polygon fill="#000000" stroke="#000000" points="186.6934,-685.8776 183.1933,-675.8776 179.6934,-685.8777 186.6934,-685.8776"/>
</g>
<!-- ln_6 -->
<g id="node14" class="node">
<title>ln_6</title>
<ellipse fill="#f0f0f0" stroke="transparent" cx="87.1933" cy="-606.7408" rx="87.3871" ry="29.3315"/>
<text text-anchor="start" x="33.5383" y="-610.9408" font-family="Times,serif" font-size="14.00" fill="#000000">AddProductToCart</text>
<text text-anchor="start" x="64.8381" y="-594.1408" font-family="Times,serif" font-size="14.00" fill="#444455">name: 1</text>
</g>
<!-- n74cdae88_1&#45;&gt;ln_6 -->
<g id="edge11" class="edge">
<title>n74cdae88_1-&gt;ln_6</title>
<path fill="none" stroke="#000000" d="M181.5271,-672.7898C174.7299,-668.0306 148.3617,-649.5686 125.2256,-633.3695"/>
</g>
<!-- ln_7 -->
<g id="node15" class="node">
<title>ln_7</title>
<ellipse fill="#f0f0f0" stroke="transparent" cx="279.1933" cy="-606.7408" rx="87.3871" ry="29.3315"/>
<text text-anchor="start" x="225.5383" y="-610.9408" font-family="Times,serif" font-size="14.00" fill="#000000">AddProductToCart</text>
<text text-anchor="start" x="255.6698" y="-594.1408" font-family="Times,serif" font-size="14.00" fill="#444455">name: B</text>
</g>
<!-- n74cdae88_1&#45;&gt;ln_7 -->
<g id="edge13" class="edge">
<title>n74cdae88_1-&gt;ln_7</title>
<path fill="none" stroke="#000000" d="M184.8596,-672.7898C191.6568,-668.0306 218.025,-649.5686 241.1611,-633.3695"/>
</g>
<!-- n6c7bf39c_1 -->
<g id="node11" class="node">
<title>n6c7bf39c_1</title>
<ellipse fill="#000000" stroke="#000000" cx="87.1933" cy="-270.6626" rx="1.8" ry="1.8"/>
</g>
<!-- ln_4&#45;&gt;n6c7bf39c_1 -->
<g id="edge8" class="edge">
<title>ln_4-&gt;n6c7bf39c_1</title>
<path fill="none" stroke="#000000" d="M87.1933,-308.2008C87.1933,-299.1713 87.1933,-289.7582 87.1933,-282.6167"/>
<polygon fill="#000000" stroke="#000000" points="90.6934,-282.5837 87.1933,-272.5838 83.6934,-282.5838 90.6934,-282.5837"/>
</g>
<!-- ln_8 -->
<g id="node17" class="node">
<title>ln_8</title>
<ellipse fill="#f0f0f0" stroke="transparent" cx="87.1933" cy="-203.4469" rx="87.3871" ry="29.3315"/>
<text text-anchor="start" x="33.5383" y="-207.6469" font-family="Times,serif" font-size="14.00" fill="#000000">AddProductToCart</text>
<text text-anchor="start" x="63.6698" y="-190.8469" font-family="Times,serif" font-size="14.00" fill="#444455">name: C</text>
</g>
<!-- n6c7bf39c_1&#45;&gt;ln_8 -->
<g id="edge15" class="edge">
<title>n6c7bf39c_1-&gt;ln_8</title>
<path fill="none" stroke="#000000" d="M87.1933,-268.7234C87.1933,-263.3422 87.1933,-247.653 87.1933,-233.0051"/>
</g>
<!-- nbd7bc1c6_1 -->
<g id="node13" class="node">
<title>nbd7bc1c6_1</title>
<ellipse fill="#000000" stroke="#000000" cx="279.1933" cy="-270.6626" rx="1.8" ry="1.8"/>
</g>
<!-- ln_5&#45;&gt;nbd7bc1c6_1 -->
<g id="edge10" class="edge">
<title>ln_5-&gt;nbd7bc1c6_1</title>
<path fill="none" stroke="#000000" d="M279.1933,-308.2008C279.1933,-299.1713 279.1933,-289.7582 279.1933,-282.6167"/>
<polygon fill="#000000" stroke="#000000" points="282.6934,-282.5837 279.1933,-272.5838 275.6934,-282.5838 282.6934,-282.5837"/>
</g>
<!-- ln_11 -->
<g id="node21" class="node">
<title>ln_11</title>
<ellipse fill="#f0f0f0" stroke="transparent" cx="279.1933" cy="-203.4469" rx="87.3871" ry="29.3315"/>
<text text-anchor="start" x="225.5383" y="-207.6469" font-family="Times,serif" font-size="14.00" fill="#000000">AddProductToCart</text>
<text text-anchor="start" x="256.8381" y="-190.8469" font-family="Times,serif" font-size="14.00" fill="#444455">name: 2</text>
</g>
<!-- nbd7bc1c6_1&#45;&gt;ln_11 -->
<g id="edge21" class="edge">
<title>nbd7bc1c6_1-&gt;ln_11</title>
<path fill="none" stroke="#000000" d="M279.1933,-268.7234C279.1933,-263.3422 279.1933,-247.653 279.1933,-233.0051"/>
</g>
<!-- ln_6&#45;&gt;nd14d3cdc_1 -->
<g id="edge12" class="edge">
<title>ln_6-&gt;nd14d3cdc_1</title>
<path fill="none" stroke="#000000" d="M87.1933,-577.0634C87.1933,-568.0339 87.1933,-558.6207 87.1933,-551.4793"/>
<polygon fill="#000000" stroke="#000000" points="90.6934,-551.4463 87.1933,-541.4464 83.6934,-551.4464 90.6934,-551.4463"/>
</g>
<!-- nb37cd6f4_1 -->
<g id="node16" class="node">
<title>nb37cd6f4_1</title>
<ellipse fill="#000000" stroke="#000000" cx="279.1933" cy="-539.5251" rx="1.8" ry="1.8"/>
</g>
<!-- ln_7&#45;&gt;nb37cd6f4_1 -->
<g id="edge14" class="edge">
<title>ln_7-&gt;nb37cd6f4_1</title>
<path fill="none" stroke="#000000" d="M279.1933,-577.0634C279.1933,-568.0339 279.1933,-558.6207 279.1933,-551.4793"/>
<polygon fill="#000000" stroke="#000000" points="282.6934,-551.4463 279.1933,-541.4464 275.6934,-551.4464 282.6934,-551.4463"/>
</g>
<!-- ln_9 -->
<g id="node18" class="node">
<title>ln_9</title>
<ellipse fill="#f0f0f0" stroke="transparent" cx="279.1933" cy="-472.3095" rx="87.3871" ry="29.3315"/>
<text text-anchor="start" x="225.5383" y="-476.5095" font-family="Times,serif" font-size="14.00" fill="#000000">AddProductToCart</text>
<text text-anchor="start" x="256.8381" y="-459.7095" font-family="Times,serif" font-size="14.00" fill="#444455">name: 1</text>
</g>
<!-- nb37cd6f4_1&#45;&gt;ln_9 -->
<g id="edge17" class="edge">
<title>nb37cd6f4_1-&gt;ln_9</title>
<path fill="none" stroke="#000000" d="M279.1933,-537.586C279.1933,-532.2048 279.1933,-516.5155 279.1933,-501.8677"/>
</g>
<!-- ln_10 -->
<g id="node19" class="node">
<title>ln_10</title>
<ellipse fill="#f0f0f0" stroke="transparent" cx="471.1933" cy="-472.3095" rx="87.3871" ry="29.3315"/>
<text text-anchor="start" x="417.5383" y="-476.5095" font-family="Times,serif" font-size="14.00" fill="#000000">AddProductToCart</text>
<text text-anchor="start" x="447.6698" y="-459.7095" font-family="Times,serif" font-size="14.00" fill="#444455">name: C</text>
</g>
<!-- nb37cd6f4_1&#45;&gt;ln_10 -->
<g id="edge19" class="edge">
<title>nb37cd6f4_1-&gt;ln_10</title>
<path fill="none" stroke="#000000" d="M281.3496,-538.7703C293.9976,-534.3424 359.7327,-511.3298 410.3444,-493.6116"/>
</g>
<!-- ln_8&#45;&gt;n19fb501a_1 -->
<g id="edge16" class="edge">
<title>ln_8-&gt;n19fb501a_1</title>
<path fill="none" stroke="#000000" d="M125.1351,-176.8815C142.4302,-164.7721 161.5494,-151.3855 172.9566,-143.3987"/>
<polygon fill="#000000" stroke="#000000" points="175.2557,-146.0616 181.4399,-137.4589 171.2408,-140.3274 175.2557,-146.0616"/>
</g>
<!-- ln_9&#45;&gt;nffc6548_1 -->
<g id="edge18" class="edge">
<title>ln_9-&gt;nffc6548_1</title>
<path fill="none" stroke="#000000" d="M241.2516,-445.7441C223.9565,-433.6347 204.8372,-420.2481 193.4301,-412.2612"/>
<polygon fill="#000000" stroke="#000000" points="195.1459,-409.19 184.9467,-406.3215 191.131,-414.9242 195.1459,-409.19"/>
</g>
<!-- n60fc3372_1 -->
<g id="node20" class="node">
<title>n60fc3372_1</title>
<ellipse fill="#000000" stroke="#000000" cx="471.1933" cy="-405.0939" rx="1.8" ry="1.8"/>
</g>
<!-- ln_10&#45;&gt;n60fc3372_1 -->
<g id="edge20" class="edge">
<title>ln_10-&gt;n60fc3372_1</title>
<path fill="none" stroke="#000000" d="M471.1933,-442.6321C471.1933,-433.6026 471.1933,-424.1895 471.1933,-417.048"/>
<polygon fill="#000000" stroke="#000000" points="474.6934,-417.015 471.1933,-407.0151 467.6934,-417.0151 474.6934,-417.015"/>
</g>
<!-- ln_12 -->
<g id="node22" class="node">
<title>ln_12</title>
<ellipse fill="#f0f0f0" stroke="transparent" cx="471.1933" cy="-337.8782" rx="87.3871" ry="29.3315"/>
<text text-anchor="start" x="417.5383" y="-342.0782" font-family="Times,serif" font-size="14.00" fill="#000000">AddProductToCart</text>
<text text-anchor="start" x="448.8381" y="-325.2782" font-family="Times,serif" font-size="14.00" fill="#444455">name: 1</text>
</g>
<!-- n60fc3372_1&#45;&gt;ln_12 -->
<g id="edge23" class="edge">
<title>n60fc3372_1-&gt;ln_12</title>
<path fill="none" stroke="#000000" d="M471.1933,-403.1547C471.1933,-397.7735 471.1933,-382.0843 471.1933,-367.4364"/>
</g>
<!-- ln_11&#45;&gt;n19fb501a_1 -->
<g id="edge22" class="edge">
<title>ln_11-&gt;n19fb501a_1</title>
<path fill="none" stroke="#000000" d="M241.2516,-176.8815C223.9565,-164.7721 204.8372,-151.3855 193.4301,-143.3987"/>
<polygon fill="#000000" stroke="#000000" points="195.1459,-140.3274 184.9467,-137.4589 191.131,-146.0616 195.1459,-140.3274"/>
</g>
<!-- ln_12&#45;&gt;nbd7bc1c6_1 -->
<g id="edge24" class="edge">
<title>ln_12-&gt;nbd7bc1c6_1</title>
<path fill="none" stroke="#000000" d="M410.4433,-316.6108C367.631,-301.623 313.957,-282.8327 290.7558,-274.7104"/>
<polygon fill="#000000" stroke="#000000" points="291.6885,-271.3287 281.0936,-271.3278 289.3755,-277.9355 291.6885,-271.3287"/>
</g>
</g>
</svg>