<?xml version="1.0" encoding="UTF-8" ?>
<svg xmlns="http://www.w3.org/2000/svg" xmlns:xlink="http://www.w3.org/1999/xlink" width="470pt" height="1926pt" viewBox="0.00 0.00 470.45 1926.00">
<g id="graph0" class="graph" transform="scale(1 1) rotate(0) translate(4 1921.9961)">
<title>EX_selenium</title>
<polygon fill="#ffffff" stroke="transparent" points="-4,4 -4,-1921.9961 466.4548,-1921.9961 466.4548,4 -4,4"/>
<!-- nd9bfa25e_1 -->
<g id="node1" class="node">
<title>nd9bfa25e_1</title>
<ellipse fill="#000000" stroke="#000000" cx="231.2274" cy="-1678.0844" rx="1.8" ry="1.8"/>
</g>
<!-- ln_1 -->
<g id="node2" class="node">
<title>ln_1</title>
<ellipse fill="#f0f0f0" stroke="transparent" cx="231.2274" cy="-1614.8286" rx="107.2034" ry="25.4118"/>
<text text-anchor="start" x="200.2368" y="-1621.7286" font-family="Times,serif" font-size="9.00" fill="#49aaff">customer-session</text>
<text text-anchor="start" x="203.3174" y="-1611.8286" font-family="Times,serif" font-size="10.00" fill="#0087e5">SwitchFrame </text>
<text text-anchor="start" x="163.3183" y="-1602.7286" font-family="Times,serif" font-size="9.00" fill="#49aaff">[//iframe[contains(@id,"framelive")]]</text>
</g>
<!-- nd9bfa25e_1&#45;&gt;ln_1 -->
<g id="edge1" class="edge">
<title>nd9bfa25e_1-&gt;ln_1</title>
<path fill="none" stroke="#000000" d="M231.2274,-1676.2595C231.2274,-1670.9117 231.2274,-1654.7463 231.2274,-1640.3406"/>
</g>
<!-- na96a99ac_1 -->
<g id="node3" class="node">
<title>na96a99ac_1</title>
<ellipse fill="#000000" stroke="#000000" cx="231.2274" cy="-1551.5727" rx="1.8" ry="1.8"/>
</g>
<!-- ln_1&#45;&gt;na96a99ac_1 -->
<g id="edge2" class="edge">
<title>ln_1-&gt;na96a99ac_1</title>
<path fill="none" stroke="#000000" d="M231.2274,-1589.1C231.2274,-1580.318 231.2274,-1570.9068 231.2274,-1563.7059"/>
<polygon fill="#000000" stroke="#000000" points="234.7275,-1563.5352 231.2274,-1553.5352 227.7275,-1563.5352 234.7275,-1563.5352"/>
</g>
<!-- ln_6 -->
<g id="node14" class="node">
<title>ln_6</title>
<ellipse fill="#f0f0f0" stroke="transparent" cx="231.2274" cy="-1488.3169" rx="90.0947" ry="25.4118"/>
<text text-anchor="start" x="200.2368" y="-1495.2169" font-family="Times,serif" font-size="9.00" fill="#49aaff">customer-session</text>
<text text-anchor="start" x="194.4244" y="-1485.3169" font-family="Times,serif" font-size="10.00" fill="#0087e5">WaitForVisibility </text>
<text text-anchor="start" x="175.5543" y="-1476.2169" font-family="Times,serif" font-size="9.00" fill="#49aaff">[//img[contains(@src,"logo")]]</text>
</g>
<!-- na96a99ac_1&#45;&gt;ln_6 -->
<g id="edge11" class="edge">
<title>na96a99ac_1-&gt;ln_6</title>
<path fill="none" stroke="#000000" d="M231.2274,-1549.7478C231.2274,-1544.4 231.2274,-1528.2346 231.2274,-1513.829"/>
</g>
<!-- n552ad909_1 -->
<g id="node4" class="node">
<title>n552ad909_1</title>
<ellipse fill="#000000" stroke="#000000" cx="231.2274" cy="-239.9117" rx="1.8" ry="1.8"/>
</g>
<!-- ln_2 -->
<g id="node5" class="node">
<title>ln_2</title>
<ellipse fill="#f0f0f0" stroke="transparent" cx="231.2274" cy="-176.6558" rx="231.455" ry="25.4118"/>
<text text-anchor="start" x="200.2368" y="-183.5558" font-family="Times,serif" font-size="9.00" fill="#49aaff">customer-session</text>
<text text-anchor="start" x="219.1444" y="-173.6558" font-family="Times,serif" font-size="10.00" fill="#0087e5">Click </text>
<text text-anchor="start" x="75.7249" y="-164.5558" font-family="Times,serif" font-size="9.00" fill="#49aaff">[//div[h4[contains(text(),"Product successfully added to your shopping cart")]]/button]</text>
</g>
<!-- n552ad909_1&#45;&gt;ln_2 -->
<g id="edge3" class="edge">
<title>n552ad909_1-&gt;ln_2</title>
<path fill="none" stroke="#000000" d="M231.2274,-238.0868C231.2274,-232.739 231.2274,-216.5735 231.2274,-202.1679"/>
</g>
<!-- nbfec801_1 -->
<g id="node6" class="node">
<title>nbfec801_1</title>
<ellipse fill="#000000" stroke="#000000" cx="231.2274" cy="-113.4" rx="1.8" ry="1.8"/>
</g>
<!-- ln_2&#45;&gt;nbfec801_1 -->
<g id="edge4" class="edge">
<title>ln_2-&gt;nbfec801_1</title>
<path fill="none" stroke="#000000" d="M231.2274,-150.9273C231.2274,-142.1453 231.2274,-132.7341 231.2274,-125.5332"/>
<polygon fill="#000000" stroke="#000000" points="234.7275,-125.3625 231.2274,-115.3625 227.7275,-125.3625 234.7275,-125.3625"/>
</g>
<!-- ln_15 -->
<g id="node30" class="node">
<title>ln_15</title>
<ellipse fill="#f0f0f0" stroke="transparent" cx="231.2274" cy="-57.6" rx="74.1393" ry="18"/>
<text text-anchor="start" x="185.3557" y="-53.4" font-family="Times,serif" font-size="14.00" fill="#000000">End(addToCart)</text>
</g>
<!-- nbfec801_1&#45;&gt;ln_15 -->
<g id="edge29" class="edge">
<title>nbfec801_1-&gt;ln_15</title>
<path fill="none" stroke="#000000" d="M231.2274,-111.5434C231.2274,-106.0216 231.2274,-89.2526 231.2274,-75.8614"/>
</g>
<!-- na5cd52ce_1 -->
<g id="node7" class="node">
<title>na5cd52ce_1</title>
<ellipse fill="#000000" stroke="#000000" cx="231.2274" cy="-868.1026" rx="1.8" ry="1.8"/>
</g>
<!-- ln_3 -->
<g id="node8" class="node">
<title>ln_3</title>
<ellipse fill="#f0f0f0" stroke="transparent" cx="231.2274" cy="-812.3026" rx="52.7507" ry="18"/>
<text text-anchor="start" x="200.8999" y="-808.1026" font-family="Times,serif" font-size="14.00" fill="#000000">End(login)</text>
</g>
<!-- na5cd52ce_1&#45;&gt;ln_3 -->
<g id="edge5" class="edge">
<title>na5cd52ce_1-&gt;ln_3</title>
<path fill="none" stroke="#000000" d="M231.2274,-866.246C231.2274,-860.7242 231.2274,-843.9552 231.2274,-830.5639"/>
</g>
<!-- n180f391f_1 -->
<g id="node9" class="node">
<title>n180f391f_1</title>
<ellipse fill="#000000" stroke="#000000" cx="231.2274" cy="-756.5026" rx="1.8" ry="1.8"/>
</g>
<!-- ln_3&#45;&gt;n180f391f_1 -->
<g id="edge6" class="edge">
<title>ln_3-&gt;n180f391f_1</title>
<path fill="none" stroke="#000000" d="M231.2274,-794.0316C231.2274,-785.7676 231.2274,-776.219 231.2274,-768.8215"/>
<polygon fill="#000000" stroke="#000000" points="234.7275,-768.5714 231.2274,-758.5714 227.7275,-768.5715 234.7275,-768.5714"/>
</g>
<!-- ln_9 -->
<g id="node21" class="node">
<title>ln_9</title>
<ellipse fill="#f0f0f0" stroke="transparent" cx="231.2274" cy="-700.7026" rx="81.6616" ry="18"/>
<text text-anchor="start" x="179.9111" y="-696.5026" font-family="Times,serif" font-size="14.00" fill="#000000">Begin(addToCart)</text>
</g>
<!-- n180f391f_1&#45;&gt;ln_9 -->
<g id="edge17" class="edge">
<title>n180f391f_1-&gt;ln_9</title>
<path fill="none" stroke="#000000" d="M231.2274,-754.646C231.2274,-749.1242 231.2274,-732.3552 231.2274,-718.9639"/>
</g>
<!-- nd9127851_1 -->
<g id="node10" class="node">
<title>nd9127851_1</title>
<ellipse fill="#000000" stroke="#000000" cx="231.2274" cy="-994.6143" rx="1.8" ry="1.8"/>
</g>
<!-- ln_4 -->
<g id="node11" class="node">
<title>ln_4</title>
<ellipse fill="#f0f0f0" stroke="transparent" cx="231.2274" cy="-931.3584" rx="91.9197" ry="25.4118"/>
<text text-anchor="start" x="200.2368" y="-938.2584" font-family="Times,serif" font-size="9.00" fill="#49aaff">customer-session</text>
<text text-anchor="start" x="219.1444" y="-928.3584" font-family="Times,serif" font-size="10.00" fill="#0087e5">Click </text>
<text text-anchor="start" x="174.3789" y="-919.2584" font-family="Times,serif" font-size="9.00" fill="#49aaff">[//button[@id="submit-login"]]</text>
</g>
<!-- nd9127851_1&#45;&gt;ln_4 -->
<g id="edge7" class="edge">
<title>nd9127851_1-&gt;ln_4</title>
<path fill="none" stroke="#000000" d="M231.2274,-992.7894C231.2274,-987.4416 231.2274,-971.2761 231.2274,-956.8705"/>
</g>
<!-- ln_4&#45;&gt;na5cd52ce_1 -->
<g id="edge8" class="edge">
<title>ln_4-&gt;na5cd52ce_1</title>
<path fill="none" stroke="#000000" d="M231.2274,-905.6299C231.2274,-896.8479 231.2274,-887.4367 231.2274,-880.2358"/>
<polygon fill="#000000" stroke="#000000" points="234.7275,-880.065 231.2274,-870.0651 227.7275,-880.0651 234.7275,-880.065"/>
</g>
<!-- na6a9c40d_1 -->
<g id="node12" class="node">
<title>na6a9c40d_1</title>
<ellipse fill="#000000" stroke="#000000" cx="231.2274" cy="-1146.5818" rx="1.8" ry="1.8"/>
</g>
<!-- ln_5 -->
<g id="node13" class="node">
<title>ln_5</title>
<ellipse fill="#f0f0f0" stroke="transparent" cx="231.2274" cy="-1070.5981" rx="93.6287" ry="38.3684"/>
<text text-anchor="start" x="200.2368" y="-1086.4981" font-family="Times,serif" font-size="9.00" fill="#49aaff">customer-session</text>
<text text-anchor="start" x="209.4314" y="-1076.5981" font-family="Times,serif" font-size="10.00" fill="#0087e5">WriteText </text>
<text text-anchor="start" x="172.8907" y="-1067.4981" font-family="Times,serif" font-size="9.00" fill="#49aaff">[//input[@id="field-password"]]</text>
<text text-anchor="start" x="181.5906" y="-1058.4981" font-family="Times,serif" font-size="9.00" fill="#49aaff">text: bob.smith@prestasho-</text>
<text text-anchor="start" x="220.1043" y="-1049.4981" font-family="Times,serif" font-size="9.00" fill="#49aaff">p.com</text>
</g>
<!-- na6a9c40d_1&#45;&gt;ln_5 -->
<g id="edge9" class="edge">
<title>na6a9c40d_1-&gt;ln_5</title>
<path fill="none" stroke="#000000" d="M231.2274,-1144.7036C231.2274,-1139.493 231.2274,-1124.2277 231.2274,-1108.896"/>
</g>
<!-- ln_5&#45;&gt;nd9127851_1 -->
<g id="edge10" class="edge">
<title>ln_5-&gt;nd9127851_1</title>
<path fill="none" stroke="#000000" d="M231.2274,-1032.161C231.2274,-1022.8298 231.2274,-1013.5344 231.2274,-1006.5269"/>
<polygon fill="#000000" stroke="#000000" points="234.7275,-1006.4642 231.2274,-996.4643 227.7275,-1006.4643 234.7275,-1006.4642"/>
</g>
<!-- nc3786489_1 -->
<g id="node15" class="node">
<title>nc3786489_1</title>
<ellipse fill="#000000" stroke="#000000" cx="231.2274" cy="-1425.061" rx="1.8" ry="1.8"/>
</g>
<!-- ln_6&#45;&gt;nc3786489_1 -->
<g id="edge12" class="edge">
<title>ln_6-&gt;nc3786489_1</title>
<path fill="none" stroke="#000000" d="M231.2274,-1462.5883C231.2274,-1453.8063 231.2274,-1444.3952 231.2274,-1437.1942"/>
<polygon fill="#000000" stroke="#000000" points="234.7275,-1437.0235 231.2274,-1427.0235 227.7275,-1437.0236 234.7275,-1437.0235"/>
</g>
<!-- ln_11 -->
<g id="node25" class="node">
<title>ln_11</title>
<ellipse fill="#f0f0f0" stroke="transparent" cx="231.2274" cy="-1361.8052" rx="87.0388" ry="25.4118"/>
<text text-anchor="start" x="200.2368" y="-1368.7052" font-family="Times,serif" font-size="9.00" fill="#49aaff">customer-session</text>
<text text-anchor="start" x="219.1444" y="-1358.8052" font-family="Times,serif" font-size="10.00" fill="#0087e5">Click </text>
<text text-anchor="start" x="177.6954" y="-1349.7052" font-family="Times,serif" font-size="9.00" fill="#49aaff">[//span[contains(.,"Sign in")]]</text>
</g>
<!-- nc3786489_1&#45;&gt;ln_11 -->
<g id="edge21" class="edge">
<title>nc3786489_1-&gt;ln_11</title>
<path fill="none" stroke="#000000" d="M231.2274,-1423.2361C231.2274,-1417.8883 231.2274,-1401.7229 231.2274,-1387.3173"/>
</g>
<!-- nc68d9e05_1 -->
<g id="node16" class="node">
<title>nc68d9e05_1</title>
<ellipse fill="#000000" stroke="#000000" cx="231.2274" cy="-492.9351" rx="1.8" ry="1.8"/>
</g>
<!-- ln_7 -->
<g id="node17" class="node">
<title>ln_7</title>
<ellipse fill="#f0f0f0" stroke="transparent" cx="231.2274" cy="-429.6792" rx="104.5375" ry="25.4118"/>
<text text-anchor="start" x="200.2368" y="-436.5792" font-family="Times,serif" font-size="9.00" fill="#49aaff">customer-session</text>
<text text-anchor="start" x="219.1444" y="-426.6792" font-family="Times,serif" font-size="10.00" fill="#0087e5">Click </text>
<text text-anchor="start" x="165.1449" y="-417.5792" font-family="Times,serif" font-size="9.00" fill="#49aaff">[(//div[@id="js-product-list"]//a)[1]]</text>
</g>
<!-- nc68d9e05_1&#45;&gt;ln_7 -->
<g id="edge13" class="edge">
<title>nc68d9e05_1-&gt;ln_7</title>
<path fill="none" stroke="#000000" d="M231.2274,-491.1102C231.2274,-485.7624 231.2274,-469.5969 231.2274,-455.1913"/>
</g>
<!-- ndb6fcdd6_1 -->
<g id="node18" class="node">
<title>ndb6fcdd6_1</title>
<ellipse fill="#000000" stroke="#000000" cx="231.2274" cy="-366.4234" rx="1.8" ry="1.8"/>
</g>
<!-- ln_7&#45;&gt;ndb6fcdd6_1 -->
<g id="edge14" class="edge">
<title>ln_7-&gt;ndb6fcdd6_1</title>
<path fill="none" stroke="#000000" d="M231.2274,-403.9506C231.2274,-395.1686 231.2274,-385.7575 231.2274,-378.5566"/>
<polygon fill="#000000" stroke="#000000" points="234.7275,-378.3858 231.2274,-368.3859 227.7275,-378.3859 234.7275,-378.3858"/>
</g>
<!-- ln_13 -->
<g id="node28" class="node">
<title>ln_13</title>
<ellipse fill="#f0f0f0" stroke="transparent" cx="231.2274" cy="-303.1675" rx="128.5966" ry="25.4118"/>
<text text-anchor="start" x="200.2368" y="-310.0675" font-family="Times,serif" font-size="9.00" fill="#49aaff">customer-session</text>
<text text-anchor="start" x="219.1444" y="-300.1675" font-family="Times,serif" font-size="10.00" fill="#0087e5">Click </text>
<text text-anchor="start" x="148.1533" y="-291.0675" font-family="Times,serif" font-size="9.00" fill="#49aaff">[//button[@data-button-action="add-to-cart"]]</text>
</g>
<!-- ndb6fcdd6_1&#45;&gt;ln_13 -->
<g id="edge25" class="edge">
<title>ndb6fcdd6_1-&gt;ln_13</title>
<path fill="none" stroke="#000000" d="M231.2274,-364.5985C231.2274,-359.2507 231.2274,-343.0852 231.2274,-328.6796"/>
</g>
<!-- n624c5547_1 -->
<g id="node19" class="node">
<title>n624c5547_1</title>
<ellipse fill="#000000" stroke="#000000" cx="231.2274" cy="-1789.6844" rx="1.8" ry="1.8"/>
</g>
<!-- ln_8 -->
<g id="node20" class="node">
<title>ln_8</title>
<ellipse fill="#f0f0f0" stroke="transparent" cx="231.2274" cy="-1733.8844" rx="60.273" ry="18"/>
<text text-anchor="start" x="195.4553" y="-1729.6844" font-family="Times,serif" font-size="14.00" fill="#000000">Begin(login)</text>
</g>
<!-- n624c5547_1&#45;&gt;ln_8 -->
<g id="edge15" class="edge">
<title>n624c5547_1-&gt;ln_8</title>
<path fill="none" stroke="#000000" d="M231.2274,-1787.8278C231.2274,-1782.306 231.2274,-1765.5371 231.2274,-1752.1458"/>
</g>
<!-- ln_8&#45;&gt;nd9bfa25e_1 -->
<g id="edge16" class="edge">
<title>ln_8-&gt;nd9bfa25e_1</title>
<path fill="none" stroke="#000000" d="M231.2274,-1715.6134C231.2274,-1707.3495 231.2274,-1697.8008 231.2274,-1690.4034"/>
<polygon fill="#000000" stroke="#000000" points="234.7275,-1690.1532 231.2274,-1680.1532 227.7275,-1690.1533 234.7275,-1690.1532"/>
</g>
<!-- n97da9748_1 -->
<g id="node22" class="node">
<title>n97da9748_1</title>
<ellipse fill="#000000" stroke="#000000" cx="231.2274" cy="-644.9026" rx="1.8" ry="1.8"/>
</g>
<!-- ln_9&#45;&gt;n97da9748_1 -->
<g id="edge18" class="edge">
<title>ln_9-&gt;n97da9748_1</title>
<path fill="none" stroke="#000000" d="M231.2274,-682.4316C231.2274,-674.1676 231.2274,-664.619 231.2274,-657.2215"/>
<polygon fill="#000000" stroke="#000000" points="234.7275,-656.9714 231.2274,-646.9714 227.7275,-656.9715 234.7275,-656.9714"/>
</g>
<!-- ln_12 -->
<g id="node27" class="node">
<title>ln_12</title>
<ellipse fill="#f0f0f0" stroke="transparent" cx="231.2274" cy="-568.9188" rx="99.8651" ry="38.3684"/>
<text text-anchor="start" x="200.2368" y="-584.8188" font-family="Times,serif" font-size="9.00" fill="#49aaff">customer-session</text>
<text text-anchor="start" x="209.4314" y="-574.9188" font-family="Times,serif" font-size="10.00" fill="#0087e5">WriteText </text>
<text text-anchor="start" x="191.6346" y="-565.8188" font-family="Times,serif" font-size="9.00" fill="#49aaff">[//input[@name="s"]]</text>
<text text-anchor="start" x="168.7413" y="-556.8188" font-family="Times,serif" font-size="9.00" fill="#49aaff">text: HUMMINGBIRD PRINTED</text>
<text text-anchor="start" x="213.982" y="-547.8188" font-family="Times,serif" font-size="9.00" fill="#49aaff">T-SHIRT</text>
</g>
<!-- n97da9748_1&#45;&gt;ln_12 -->
<g id="edge23" class="edge">
<title>n97da9748_1-&gt;ln_12</title>
<path fill="none" stroke="#000000" d="M231.2274,-643.0243C231.2274,-637.8138 231.2274,-622.5485 231.2274,-607.2168"/>
</g>
<!-- n40543184_1 -->
<g id="node23" class="node">
<title>n40543184_1</title>
<ellipse fill="#000000" stroke="#000000" cx="231.2274" cy="-1916.1961" rx="1.8" ry="1.8"/>
</g>
<!-- ln_10 -->
<g id="node24" class="node">
<title>ln_10</title>
<ellipse fill="#f0f0f0" stroke="transparent" cx="231.2274" cy="-1852.9403" rx="116.1079" ry="25.4118"/>
<text text-anchor="start" x="200.2368" y="-1859.8403" font-family="Times,serif" font-size="9.00" fill="#49aaff">customer-session</text>
<text text-anchor="start" x="205.2574" y="-1849.9403" font-family="Times,serif" font-size="10.00" fill="#0087e5">StartSession </text>
<text text-anchor="start" x="156.9882" y="-1840.8403" font-family="Times,serif" font-size="9.00" fill="#49aaff">[https://demo.prestashop.com/#/en/login]</text>
</g>
<!-- n40543184_1&#45;&gt;ln_10 -->
<g id="edge19" class="edge">
<title>n40543184_1-&gt;ln_10</title>
<path fill="none" stroke="#000000" d="M231.2274,-1914.3712C231.2274,-1909.0234 231.2274,-1892.8579 231.2274,-1878.4523"/>
</g>
<!-- ln_10&#45;&gt;n624c5547_1 -->
<g id="edge20" class="edge">
<title>ln_10-&gt;n624c5547_1</title>
<path fill="none" stroke="#000000" d="M231.2274,-1827.2117C231.2274,-1818.4297 231.2274,-1809.0185 231.2274,-1801.8176"/>
<polygon fill="#000000" stroke="#000000" points="234.7275,-1801.6469 231.2274,-1791.6469 227.7275,-1801.6469 234.7275,-1801.6469"/>
</g>
<!-- na114228e_1 -->
<g id="node26" class="node">
<title>na114228e_1</title>
<ellipse fill="#000000" stroke="#000000" cx="231.2274" cy="-1298.5494" rx="1.8" ry="1.8"/>
</g>
<!-- ln_11&#45;&gt;na114228e_1 -->
<g id="edge22" class="edge">
<title>ln_11-&gt;na114228e_1</title>
<path fill="none" stroke="#000000" d="M231.2274,-1336.0766C231.2274,-1327.2946 231.2274,-1317.8835 231.2274,-1310.6826"/>
<polygon fill="#000000" stroke="#000000" points="234.7275,-1310.5118 231.2274,-1300.5118 227.7275,-1310.5119 234.7275,-1310.5118"/>
</g>
<!-- ln_14 -->
<g id="node29" class="node">
<title>ln_14</title>
<ellipse fill="#f0f0f0" stroke="transparent" cx="231.2274" cy="-1222.5656" rx="83.8365" ry="38.3684"/>
<text text-anchor="start" x="200.2368" y="-1238.4656" font-family="Times,serif" font-size="9.00" fill="#49aaff">customer-session</text>
<text text-anchor="start" x="209.4314" y="-1228.5656" font-family="Times,serif" font-size="10.00" fill="#0087e5">WriteText </text>
<text text-anchor="start" x="179.8882" y="-1219.4656" font-family="Times,serif" font-size="9.00" fill="#49aaff">[//input[@id="field-email"]]</text>
<text text-anchor="start" x="181.5906" y="-1210.4656" font-family="Times,serif" font-size="9.00" fill="#49aaff">text: bob.smith@prestasho-</text>
<text text-anchor="start" x="220.1043" y="-1201.4656" font-family="Times,serif" font-size="9.00" fill="#49aaff">p.com</text>
</g>
<!-- na114228e_1&#45;&gt;ln_14 -->
<g id="edge27" class="edge">
<title>na114228e_1-&gt;ln_14</title>
<path fill="none" stroke="#000000" d="M231.2274,-1296.6711C231.2274,-1291.4605 231.2274,-1276.1953 231.2274,-1260.8636"/>
</g>
<!-- ln_12&#45;&gt;nc68d9e05_1 -->
<g id="edge24" class="edge">
<title>ln_12-&gt;nc68d9e05_1</title>
<path fill="none" stroke="#000000" d="M231.2274,-530.4817C231.2274,-521.1506 231.2274,-511.8552 231.2274,-504.8477"/>
<polygon fill="#000000" stroke="#000000" points="234.7275,-504.785 231.2274,-494.7851 227.7275,-504.7851 234.7275,-504.785"/>
</g>
<!-- ln_13&#45;&gt;n552ad909_1 -->
<g id="edge26" class="edge">
<title>ln_13-&gt;n552ad909_1</title>
<path fill="none" stroke="#000000" d="M231.2274,-277.439C231.2274,-268.6569 231.2274,-259.2458 231.2274,-252.0449"/>
<polygon fill="#000000" stroke="#000000" points="234.7275,-251.8741 231.2274,-241.8742 227.7275,-251.8742 234.7275,-251.8741"/>
</g>
<!-- ln_14&#45;&gt;na6a9c40d_1 -->
<g id="edge28" class="edge">
<title>ln_14-&gt;na6a9c40d_1</title>
<path fill="none" stroke="#000000" d="M231.2274,-1184.1285C231.2274,-1174.7973 231.2274,-1165.502 231.2274,-1158.4944"/>
<polygon fill="#000000" stroke="#000000" points="234.7275,-1158.4318 231.2274,-1148.4318 227.7275,-1158.4318 234.7275,-1158.4318"/>
</g>
<!-- n4a_1 -->
<g id="node31" class="node">
<title>n4a_1</title>
<ellipse fill="#000000" stroke="#000000" cx="231.2274" cy="-1.8" rx="1.8" ry="1.8"/>
</g>
<!-- ln_15&#45;&gt;n4a_1 -->
<g id="edge30" class="edge">
<title>ln_15-&gt;n4a_1</title>
<path fill="none" stroke="#000000" d="M231.2274,-39.329C231.2274,-31.065 231.2274,-21.5164 231.2274,-14.1189"/>
<polygon fill="#000000" stroke="#000000" points="234.7275,-13.8688 231.2274,-3.8688 227.7275,-13.8689 234.7275,-13.8688"/>
</g>
</g>
</svg>