<?xml version="1.0" encoding="UTF-8" ?>
<svg xmlns="http://www.w3.org/2000/svg" xmlns:xlink="http://www.w3.org/1999/xlink" width="1142pt" height="870pt" viewBox="0.00 0.00 1142.39 869.91">
<g id="graph0" class="graph" transform="scale(1 1) rotate(0) translate(4 865.9096)">
<title>first_model</title>
<polygon fill="#ffffff" stroke="transparent" points="-4,4 -4,-865.9096 1138.3867,-865.9096 1138.3867,4 -4,4"/>
<!-- n81b4f2f6_1 -->
<g id="node1" class="node">
<title>n81b4f2f6_1</title>
<ellipse fill="none" stroke="#338866" cx="567.1933" cy="-834.2486" rx="27.8228" ry="27.8228"/>
<text text-anchor="middle" x="567.1933" y="-830.0486" font-family="Times,serif" font-size="14.00" fill="#338866">start</text>
</g>
<!-- ln_6 -->
<g id="node13" class="node">
<title>ln_6</title>
<ellipse fill="#f0f0f0" stroke="transparent" cx="471.1933" cy="-741.1721" rx="87.3871" ry="29.3315"/>
<text text-anchor="start" x="417.5383" y="-745.3721" font-family="Times,serif" font-size="14.00" fill="#000000">AddProductToCart</text>
<text text-anchor="start" x="448.8381" y="-728.5721" font-family="Times,serif" font-size="14.00" fill="#444455">name: 1</text>
</g>
<!-- n81b4f2f6_1&#45;&gt;ln_6 -->
<g id="edge11" class="edge">
<title>n81b4f2f6_1-&gt;ln_6</title>
<path fill="none" stroke="#000000" d="M547.3021,-814.9631C533.6819,-801.7577 515.3997,-784.0323 500.1674,-769.2638"/>
</g>
<!-- ln_7 -->
<g id="node15" class="node">
<title>ln_7</title>
<ellipse fill="#f0f0f0" stroke="transparent" cx="663.1933" cy="-741.1721" rx="87.3871" ry="29.3315"/>
<text text-anchor="start" x="609.5383" y="-745.3721" font-family="Times,serif" font-size="14.00" fill="#000000">AddProductToCart</text>
<text text-anchor="start" x="639.2848" y="-728.5721" font-family="Times,serif" font-size="14.00" fill="#444455">name: A</text>
</g>
<!-- n81b4f2f6_1&#45;&gt;ln_7 -->
<g id="edge13" class="edge">
<title>n81b4f2f6_1-&gt;ln_7</title>
<path fill="none" stroke="#000000" d="M587.0846,-814.9631C600.7047,-801.7577 618.9869,-784.0323 634.2193,-769.2638"/>
</g>
<!-- n97339df2_2 -->
<g id="node2" class="node">
<title>n97339df2_2</title>
<ellipse fill="#000000" stroke="#000000" cx="759.1933" cy="-405.0939" rx="1.8" ry="1.8"/>
</g>
<!-- ln_1 -->
<g id="node3" class="node">
<title>ln_1</title>
<ellipse fill="#f0f0f0" stroke="transparent" cx="663.1933" cy="-337.8782" rx="87.3871" ry="29.3315"/>
<text text-anchor="start" x="609.5383" y="-342.0782" font-family="Times,serif" font-size="14.00" fill="#000000">AddProductToCart</text>
<text text-anchor="start" x="640.8381" y="-325.2782" font-family="Times,serif" font-size="14.00" fill="#444455">name: 2</text>
</g>
<!-- n97339df2_2&#45;&gt;ln_1 -->
<g id="edge1" class="edge">
<title>n97339df2_2-&gt;ln_1</title>
<path fill="none" stroke="#000000" d="M757.5271,-403.9272C750.7299,-399.1681 724.3617,-380.706 701.2256,-364.507"/>
</g>
<!-- ln_2 -->
<g id="node5" class="node">
<title>ln_2</title>
<ellipse fill="#f0f0f0" stroke="transparent" cx="855.1933" cy="-337.8782" rx="87.3871" ry="29.3315"/>
<text text-anchor="start" x="801.5383" y="-342.0782" font-family="Times,serif" font-size="14.00" fill="#000000">AddProductToCart</text>
<text text-anchor="start" x="831.6698" y="-325.2782" font-family="Times,serif" font-size="14.00" fill="#444455">name: C</text>
</g>
<!-- n97339df2_2&#45;&gt;ln_2 -->
<g id="edge3" class="edge">
<title>n97339df2_2-&gt;ln_2</title>
<path fill="none" stroke="#000000" d="M760.8596,-403.9272C767.6568,-399.1681 794.025,-380.706 817.1611,-364.507"/>
</g>
<!-- nf3b32c46_1 -->
<g id="node4" class="node">
<title>nf3b32c46_1</title>
<ellipse fill="#000000" stroke="#000000" cx="567.1933" cy="-270.6626" rx="1.8" ry="1.8"/>
</g>
<!-- ln_1&#45;&gt;nf3b32c46_1 -->
<g id="edge2" class="edge">
<title>ln_1-&gt;nf3b32c46_1</title>
<path fill="none" stroke="#000000" d="M625.2516,-311.3128C607.9565,-299.2034 588.8372,-285.8168 577.4301,-277.8299"/>
<polygon fill="#000000" stroke="#000000" points="579.1459,-274.7587 568.9467,-271.8902 575.131,-280.4929 579.1459,-274.7587"/>
</g>
<!-- ln_16 -->
<g id="node32" class="node">
<title>ln_16</title>
<ellipse fill="#f0f0f0" stroke="transparent" cx="471.1933" cy="-203.4469" rx="87.3871" ry="29.3315"/>
<text text-anchor="start" x="417.5383" y="-207.6469" font-family="Times,serif" font-size="14.00" fill="#000000">AddProductToCart</text>
<text text-anchor="start" x="448.8381" y="-190.8469" font-family="Times,serif" font-size="14.00" fill="#444455">name: 3</text>
</g>
<!-- nf3b32c46_1&#45;&gt;ln_16 -->
<g id="edge31" class="edge">
<title>nf3b32c46_1-&gt;ln_16</title>
<path fill="none" stroke="#000000" d="M565.5271,-269.4959C558.7299,-264.7368 532.3617,-246.2747 509.2256,-230.0757"/>
</g>
<!-- ln_17 -->
<g id="node33" class="node">
<title>ln_17</title>
<ellipse fill="#f0f0f0" stroke="transparent" cx="663.1933" cy="-203.4469" rx="87.3871" ry="29.3315"/>
<text text-anchor="start" x="609.5383" y="-207.6469" font-family="Times,serif" font-size="14.00" fill="#000000">AddProductToCart</text>
<text text-anchor="start" x="639.6698" y="-190.8469" font-family="Times,serif" font-size="14.00" fill="#444455">name: C</text>
</g>
<!-- nf3b32c46_1&#45;&gt;ln_17 -->
<g id="edge33" class="edge">
<title>nf3b32c46_1-&gt;ln_17</title>
<path fill="none" stroke="#000000" d="M568.8596,-269.4959C575.6568,-264.7368 602.025,-246.2747 625.1611,-230.0757"/>
</g>
<!-- nf06e2f04_1 -->
<g id="node6" class="node">
<title>nf06e2f04_1</title>
<ellipse fill="#000000" stroke="#000000" cx="855.1933" cy="-270.6626" rx="1.8" ry="1.8"/>
</g>
<!-- ln_2&#45;&gt;nf06e2f04_1 -->
<g id="edge4" class="edge">
<title>ln_2-&gt;nf06e2f04_1</title>
<path fill="none" stroke="#000000" d="M855.1933,-308.2008C855.1933,-299.1713 855.1933,-289.7582 855.1933,-282.6167"/>
<polygon fill="#000000" stroke="#000000" points="858.6934,-282.5837 855.1933,-272.5838 851.6934,-282.5838 858.6934,-282.5837"/>
</g>
<!-- ln_10 -->
<g id="node21" class="node">
<title>ln_10</title>
<ellipse fill="#f0f0f0" stroke="transparent" cx="855.1933" cy="-203.4469" rx="87.3871" ry="29.3315"/>
<text text-anchor="start" x="801.5383" y="-207.6469" font-family="Times,serif" font-size="14.00" fill="#000000">AddProductToCart</text>
<text text-anchor="start" x="832.8381" y="-190.8469" font-family="Times,serif" font-size="14.00" fill="#444455">name: 2</text>
</g>
<!-- nf06e2f04_1&#45;&gt;ln_10 -->
<g id="edge19" class="edge">
<title>nf06e2f04_1-&gt;ln_10</title>
<path fill="none" stroke="#000000" d="M855.1933,-268.7234C855.1933,-263.3422 855.1933,-247.653 855.1933,-233.0051"/>
</g>
<!-- n97339df2_1 -->
<g id="node7" class="node">
<title>n97339df2_1</title>
<ellipse fill="#000000" stroke="#000000" cx="375.1933" cy="-405.0939" rx="1.8" ry="1.8"/>
</g>
<!-- ln_3 -->
<g id="node8" class="node">
<title>ln_3</title>
<ellipse fill="#f0f0f0" stroke="transparent" cx="279.1933" cy="-337.8782" rx="87.3871" ry="29.3315"/>
<text text-anchor="start" x="225.5383" y="-342.0782" font-family="Times,serif" font-size="14.00" fill="#000000">AddProductToCart</text>
<text text-anchor="start" x="256.8381" y="-325.2782" font-family="Times,serif" font-size="14.00" fill="#444455">name: 3</text>
</g>
<!-- n97339df2_1&#45;&gt;ln_3 -->
<g id="edge5" class="edge">
<title>n97339df2_1-&gt;ln_3</title>
<path fill="none" stroke="#000000" d="M373.5271,-403.9272C366.7299,-399.1681 340.3617,-380.706 317.2256,-364.507"/>
</g>
<!-- ln_4 -->
<g id="node10" class="node">
<title>ln_4</title>
<ellipse fill="#f0f0f0" stroke="transparent" cx="471.1933" cy="-337.8782" rx="87.3871" ry="29.3315"/>
<text text-anchor="start" x="417.5383" y="-342.0782" font-family="Times,serif" font-size="14.00" fill="#000000">AddProductToCart</text>
<text text-anchor="start" x="447.6698" y="-325.2782" font-family="Times,serif" font-size="14.00" fill="#444455">name: B</text>
</g>
<!-- n97339df2_1&#45;&gt;ln_4 -->
<g id="edge7" class="edge">
<title>n97339df2_1-&gt;ln_4</title>
<path fill="none" stroke="#000000" d="M376.8596,-403.9272C383.6568,-399.1681 410.025,-380.706 433.1611,-364.507"/>
</g>
<!-- n4a45e0e4_1 -->
<g id="node9" class="node">
<title>n4a45e0e4_1</title>
<ellipse fill="#000000" stroke="#000000" cx="279.1933" cy="-270.6626" rx="1.8" ry="1.8"/>
</g>
<!-- ln_3&#45;&gt;n4a45e0e4_1 -->
<g id="edge6" class="edge">
<title>ln_3-&gt;n4a45e0e4_1</title>
<path fill="none" stroke="#000000" d="M279.1933,-308.2008C279.1933,-299.1713 279.1933,-289.7582 279.1933,-282.6167"/>
<polygon fill="#000000" stroke="#000000" points="282.6934,-282.5837 279.1933,-272.5838 275.6934,-282.5838 282.6934,-282.5837"/>
</g>
<!-- ln_5 -->
<g id="node11" class="node">
<title>ln_5</title>
<ellipse fill="#f0f0f0" stroke="transparent" cx="279.1933" cy="-203.4469" rx="87.3871" ry="29.3315"/>
<text text-anchor="start" x="225.5383" y="-207.6469" font-family="Times,serif" font-size="14.00" fill="#000000">AddProductToCart</text>
<text text-anchor="start" x="255.6698" y="-190.8469" font-family="Times,serif" font-size="14.00" fill="#444455">name: B</text>
</g>
<!-- n4a45e0e4_1&#45;&gt;ln_5 -->
<g id="edge9" class="edge">
<title>n4a45e0e4_1-&gt;ln_5</title>
<path fill="none" stroke="#000000" d="M279.1933,-268.7234C279.1933,-263.3422 279.1933,-247.653 279.1933,-233.0051"/>
</g>
<!-- ln_4&#45;&gt;nf3b32c46_1 -->
<g id="edge8" class="edge">
<title>ln_4-&gt;nf3b32c46_1</title>
<path fill="none" stroke="#000000" d="M509.1351,-311.3128C526.4302,-299.2034 545.5494,-285.8168 556.9566,-277.8299"/>
<polygon fill="#000000" stroke="#000000" points="559.2557,-280.4929 565.4399,-271.8902 555.2408,-274.7587 559.2557,-280.4929"/>
</g>
<!-- na6c56f38_1 -->
<g id="node12" class="node">
<title>na6c56f38_1</title>
<ellipse fill="#000000" stroke="#000000" cx="471.1933" cy="-136.2313" rx="1.8" ry="1.8"/>
</g>
<!-- ln_5&#45;&gt;na6c56f38_1 -->
<g id="edge10" class="edge">
<title>ln_5-&gt;na6c56f38_1</title>
<path fill="none" stroke="#000000" d="M339.9433,-182.1795C382.7557,-167.1917 436.4296,-148.4014 459.6309,-140.2791"/>
<polygon fill="#000000" stroke="#000000" points="461.0112,-143.5042 469.293,-136.8965 458.6982,-136.8974 461.0112,-143.5042"/>
</g>
<!-- ln_19 -->
<g id="node35" class="node">
<title>ln_19</title>
<ellipse fill="#f0f0f0" stroke="transparent" cx="471.1933" cy="-69.0156" rx="87.3871" ry="29.3315"/>
<text text-anchor="start" x="417.5383" y="-73.2156" font-family="Times,serif" font-size="14.00" fill="#000000">AddProductToCart</text>
<text text-anchor="start" x="447.6698" y="-56.4156" font-family="Times,serif" font-size="14.00" fill="#444455">name: C</text>
</g>
<!-- na6c56f38_1&#45;&gt;ln_19 -->
<g id="edge37" class="edge">
<title>na6c56f38_1-&gt;ln_19</title>
<path fill="none" stroke="#000000" d="M471.1933,-134.2921C471.1933,-128.9109 471.1933,-113.2217 471.1933,-98.5738"/>
</g>
<!-- nde34814a_1 -->
<g id="node14" class="node">
<title>nde34814a_1</title>
<ellipse fill="#000000" stroke="#000000" cx="471.1933" cy="-673.9564" rx="1.8" ry="1.8"/>
</g>
<!-- ln_6&#45;&gt;nde34814a_1 -->
<g id="edge12" class="edge">
<title>ln_6-&gt;nde34814a_1</title>
<path fill="none" stroke="#000000" d="M471.1933,-711.4946C471.1933,-702.4652 471.1933,-693.052 471.1933,-685.9106"/>
<polygon fill="#000000" stroke="#000000" points="474.6934,-685.8776 471.1933,-675.8776 467.6934,-685.8777 474.6934,-685.8776"/>
</g>
<!-- ln_23 -->
<g id="node39" class="node">
<title>ln_23</title>
<ellipse fill="#f0f0f0" stroke="transparent" cx="279.1933" cy="-606.7408" rx="87.3871" ry="29.3315"/>
<text text-anchor="start" x="225.5383" y="-610.9408" font-family="Times,serif" font-size="14.00" fill="#000000">AddProductToCart</text>
<text text-anchor="start" x="256.8381" y="-594.1408" font-family="Times,serif" font-size="14.00" fill="#444455">name: 2</text>
</g>
<!-- nde34814a_1&#45;&gt;ln_23 -->
<g id="edge45" class="edge">
<title>nde34814a_1-&gt;ln_23</title>
<path fill="none" stroke="#000000" d="M469.0371,-673.2016C456.3891,-668.7737 390.654,-645.7611 340.0422,-628.0428"/>
</g>
<!-- ln_24 -->
<g id="node40" class="node">
<title>ln_24</title>
<ellipse fill="#f0f0f0" stroke="transparent" cx="471.1933" cy="-606.7408" rx="87.3871" ry="29.3315"/>
<text text-anchor="start" x="417.5383" y="-610.9408" font-family="Times,serif" font-size="14.00" fill="#000000">AddProductToCart</text>
<text text-anchor="start" x="447.2848" y="-594.1408" font-family="Times,serif" font-size="14.00" fill="#444455">name: A</text>
</g>
<!-- nde34814a_1&#45;&gt;ln_24 -->
<g id="edge47" class="edge">
<title>nde34814a_1-&gt;ln_24</title>
<path fill="none" stroke="#000000" d="M471.1933,-672.0173C471.1933,-666.6361 471.1933,-650.9468 471.1933,-636.299"/>
</g>
<!-- nde34814a_2 -->
<g id="node16" class="node">
<title>nde34814a_2</title>
<ellipse fill="#000000" stroke="#000000" cx="663.1933" cy="-673.9564" rx="1.8" ry="1.8"/>
</g>
<!-- ln_7&#45;&gt;nde34814a_2 -->
<g id="edge14" class="edge">
<title>ln_7-&gt;nde34814a_2</title>
<path fill="none" stroke="#000000" d="M663.1933,-711.4946C663.1933,-702.4652 663.1933,-693.052 663.1933,-685.9106"/>
<polygon fill="#000000" stroke="#000000" points="666.6934,-685.8776 663.1933,-675.8776 659.6934,-685.8777 666.6934,-685.8776"/>
</g>
<!-- ln_21 -->
<g id="node37" class="node">
<title>ln_21</title>
<ellipse fill="#f0f0f0" stroke="transparent" cx="663.1933" cy="-606.7408" rx="87.3871" ry="29.3315"/>
<text text-anchor="start" x="609.5383" y="-610.9408" font-family="Times,serif" font-size="14.00" fill="#000000">AddProductToCart</text>
<text text-anchor="start" x="640.8381" y="-594.1408" font-family="Times,serif" font-size="14.00" fill="#444455">name: 1</text>
</g>
<!-- nde34814a_2&#45;&gt;ln_21 -->
<g id="edge41" class="edge">
<title>nde34814a_2-&gt;ln_21</title>
<path fill="none" stroke="#000000" d="M663.1933,-672.0173C663.1933,-666.6361 663.1933,-650.9468 663.1933,-636.299"/>
</g>
<!-- ln_22 -->
<g id="node38" class="node">
<title>ln_22</title>
<ellipse fill="#f0f0f0" stroke="transparent" cx="855.1933" cy="-606.7408" rx="87.3871" ry="29.3315"/>
<text text-anchor="start" x="801.5383" y="-610.9408" font-family="Times,serif" font-size="14.00" fill="#000000">AddProductToCart</text>
<text text-anchor="start" x="831.6698" y="-594.1408" font-family="Times,serif" font-size="14.00" fill="#444455">name: B</text>
</g>
<!-- nde34814a_2&#45;&gt;ln_22 -->
<g id="edge43" class="edge">
<title>nde34814a_2-&gt;ln_22</title>
<path fill="none" stroke="#000000" d="M665.3496,-673.2016C677.9976,-668.7737 743.7327,-645.7611 794.3444,-628.0428"/>
</g>
<!-- n3ab40f9e_3 -->
<g id="node17" class="node">
<title>n3ab40f9e_3</title>
<ellipse fill="#000000" stroke="#000000" cx="855.1933" cy="-539.5251" rx="1.8" ry="1.8"/>
</g>
<!-- ln_8 -->
<g id="node18" class="node">
<title>ln_8</title>
<ellipse fill="#f0f0f0" stroke="transparent" cx="855.1933" cy="-472.3095" rx="87.3871" ry="29.3315"/>
<text text-anchor="start" x="801.5383" y="-476.5095" font-family="Times,serif" font-size="14.00" fill="#000000">AddProductToCart</text>
<text text-anchor="start" x="832.8381" y="-459.7095" font-family="Times,serif" font-size="14.00" fill="#444455">name: 1</text>
</g>
<!-- n3ab40f9e_3&#45;&gt;ln_8 -->
<g id="edge15" class="edge">
<title>n3ab40f9e_3-&gt;ln_8</title>
<path fill="none" stroke="#000000" d="M855.1933,-537.586C855.1933,-532.2048 855.1933,-516.5155 855.1933,-501.8677"/>
</g>
<!-- ln_9 -->
<g id="node19" class="node">
<title>ln_9</title>
<ellipse fill="#f0f0f0" stroke="transparent" cx="1047.1933" cy="-472.3095" rx="87.3871" ry="29.3315"/>
<text text-anchor="start" x="993.5383" y="-476.5095" font-family="Times,serif" font-size="14.00" fill="#000000">AddProductToCart</text>
<text text-anchor="start" x="1023.6698" y="-459.7095" font-family="Times,serif" font-size="14.00" fill="#444455">name: C</text>
</g>
<!-- n3ab40f9e_3&#45;&gt;ln_9 -->
<g id="edge17" class="edge">
<title>n3ab40f9e_3-&gt;ln_9</title>
<path fill="none" stroke="#000000" d="M857.3496,-538.7703C869.9976,-534.3424 935.7327,-511.3298 986.3444,-493.6116"/>
</g>
<!-- ln_8&#45;&gt;n97339df2_2 -->
<g id="edge16" class="edge">
<title>ln_8-&gt;n97339df2_2</title>
<path fill="none" stroke="#000000" d="M817.2516,-445.7441C799.9565,-433.6347 780.8372,-420.2481 769.4301,-412.2612"/>
<polygon fill="#000000" stroke="#000000" points="771.1459,-409.19 760.9467,-406.3215 767.131,-414.9242 771.1459,-409.19"/>
</g>
<!-- n93eea0b0_1 -->
<g id="node20" class="node">
<title>n93eea0b0_1</title>
<ellipse fill="#000000" stroke="#000000" cx="1047.1933" cy="-405.0939" rx="1.8" ry="1.8"/>
</g>
<!-- ln_9&#45;&gt;n93eea0b0_1 -->
<g id="edge18" class="edge">
<title>ln_9-&gt;n93eea0b0_1</title>
<path fill="none" stroke="#000000" d="M1047.1933,-442.6321C1047.1933,-433.6026 1047.1933,-424.1895 1047.1933,-417.048"/>
<polygon fill="#000000" stroke="#000000" points="1050.6934,-417.015 1047.1933,-407.0151 1043.6934,-417.0151 1050.6934,-417.015"/>
</g>
<!-- ln_20 -->
<g id="node36" class="node">
<title>ln_20</title>
<ellipse fill="#f0f0f0" stroke="transparent" cx="1047.1933" cy="-337.8782" rx="87.3871" ry="29.3315"/>
<text text-anchor="start" x="993.5383" y="-342.0782" font-family="Times,serif" font-size="14.00" fill="#000000">AddProductToCart</text>
<text text-anchor="start" x="1024.8381" y="-325.2782" font-family="Times,serif" font-size="14.00" fill="#444455">name: 1</text>
</g>
<!-- n93eea0b0_1&#45;&gt;ln_20 -->
<g id="edge39" class="edge">
<title>n93eea0b0_1-&gt;ln_20</title>
<path fill="none" stroke="#000000" d="M1047.1933,-403.1547C1047.1933,-397.7735 1047.1933,-382.0843 1047.1933,-367.4364"/>
</g>
<!-- n4cedbd58_1 -->
<g id="node22" class="node">
<title>n4cedbd58_1</title>
<ellipse fill="#000000" stroke="#000000" cx="663.1933" cy="-136.2313" rx="1.8" ry="1.8"/>
</g>
<!-- ln_10&#45;&gt;n4cedbd58_1 -->
<g id="edge20" class="edge">
<title>ln_10-&gt;n4cedbd58_1</title>
<path fill="none" stroke="#000000" d="M794.4433,-182.1795C751.631,-167.1917 697.957,-148.4014 674.7558,-140.2791"/>
<polygon fill="#000000" stroke="#000000" points="675.6885,-136.8974 665.0936,-136.8965 673.3755,-143.5042 675.6885,-136.8974"/>
</g>
<!-- ln_15 -->
<g id="node30" class="node">
<title>ln_15</title>
<ellipse fill="#f0f0f0" stroke="transparent" cx="663.1933" cy="-69.0156" rx="87.3871" ry="29.3315"/>
<text text-anchor="start" x="609.5383" y="-73.2156" font-family="Times,serif" font-size="14.00" fill="#000000">AddProductToCart</text>
<text text-anchor="start" x="640.8381" y="-56.4156" font-family="Times,serif" font-size="14.00" fill="#444455">name: 3</text>
</g>
<!-- n4cedbd58_1&#45;&gt;ln_15 -->
<g id="edge29" class="edge">
<title>n4cedbd58_1-&gt;ln_15</title>
<path fill="none" stroke="#000000" d="M663.1933,-134.2921C663.1933,-128.9109 663.1933,-113.2217 663.1933,-98.5738"/>
</g>
<!-- n3ab40f9e_2 -->
<g id="node23" class="node">
<title>n3ab40f9e_2</title>
<ellipse fill="#000000" stroke="#000000" cx="567.1933" cy="-539.5251" rx="1.8" ry="1.8"/>
</g>
<!-- ln_11 -->
<g id="node24" class="node">
<title>ln_11</title>
<ellipse fill="#f0f0f0" stroke="transparent" cx="471.1933" cy="-472.3095" rx="87.3871" ry="29.3315"/>
<text text-anchor="start" x="417.5383" y="-476.5095" font-family="Times,serif" font-size="14.00" fill="#000000">AddProductToCart</text>
<text text-anchor="start" x="448.8381" y="-459.7095" font-family="Times,serif" font-size="14.00" fill="#444455">name: 2</text>
</g>
<!-- n3ab40f9e_2&#45;&gt;ln_11 -->
<g id="edge21" class="edge">
<title>n3ab40f9e_2-&gt;ln_11</title>
<path fill="none" stroke="#000000" d="M565.5271,-538.3585C558.7299,-533.5994 532.3617,-515.1373 509.2256,-498.9382"/>
</g>
<!-- ln_12 -->
<g id="node25" class="node">
<title>ln_12</title>
<ellipse fill="#f0f0f0" stroke="transparent" cx="663.1933" cy="-472.3095" rx="87.3871" ry="29.3315"/>
<text text-anchor="start" x="609.5383" y="-476.5095" font-family="Times,serif" font-size="14.00" fill="#000000">AddProductToCart</text>
<text text-anchor="start" x="639.6698" y="-459.7095" font-family="Times,serif" font-size="14.00" fill="#444455">name: B</text>
</g>
<!-- n3ab40f9e_2&#45;&gt;ln_12 -->
<g id="edge23" class="edge">
<title>n3ab40f9e_2-&gt;ln_12</title>
<path fill="none" stroke="#000000" d="M568.8596,-538.3585C575.6568,-533.5994 602.025,-515.1373 625.1611,-498.9382"/>
</g>
<!-- ln_11&#45;&gt;n97339df2_1 -->
<g id="edge22" class="edge">
<title>ln_11-&gt;n97339df2_1</title>
<path fill="none" stroke="#000000" d="M433.2516,-445.7441C415.9565,-433.6347 396.8372,-420.2481 385.4301,-412.2612"/>
<polygon fill="#000000" stroke="#000000" points="387.1459,-409.19 376.9467,-406.3215 383.131,-414.9242 387.1459,-409.19"/>
</g>
<!-- ln_12&#45;&gt;n97339df2_2 -->
<g id="edge24" class="edge">
<title>ln_12-&gt;n97339df2_2</title>
<path fill="none" stroke="#000000" d="M701.1351,-445.7441C718.4302,-433.6347 737.5494,-420.2481 748.9566,-412.2612"/>
<polygon fill="#000000" stroke="#000000" points="751.2557,-414.9242 757.4399,-406.3215 747.2408,-409.19 751.2557,-414.9242"/>
</g>
<!-- n3ab40f9e_1 -->
<g id="node26" class="node">
<title>n3ab40f9e_1</title>
<ellipse fill="#000000" stroke="#000000" cx="279.1933" cy="-539.5251" rx="1.8" ry="1.8"/>
</g>
<!-- ln_13 -->
<g id="node27" class="node">
<title>ln_13</title>
<ellipse fill="#f0f0f0" stroke="transparent" cx="87.1933" cy="-472.3095" rx="87.3871" ry="29.3315"/>
<text text-anchor="start" x="33.5383" y="-476.5095" font-family="Times,serif" font-size="14.00" fill="#000000">AddProductToCart</text>
<text text-anchor="start" x="64.8381" y="-459.7095" font-family="Times,serif" font-size="14.00" fill="#444455">name: 3</text>
</g>
<!-- n3ab40f9e_1&#45;&gt;ln_13 -->
<g id="edge25" class="edge">
<title>n3ab40f9e_1-&gt;ln_13</title>
<path fill="none" stroke="#000000" d="M277.0371,-538.7703C264.3891,-534.3424 198.654,-511.3298 148.0422,-493.6116"/>
</g>
<!-- ln_14 -->
<g id="node29" class="node">
<title>ln_14</title>
<ellipse fill="#f0f0f0" stroke="transparent" cx="279.1933" cy="-472.3095" rx="87.3871" ry="29.3315"/>
<text text-anchor="start" x="225.5383" y="-476.5095" font-family="Times,serif" font-size="14.00" fill="#000000">AddProductToCart</text>
<text text-anchor="start" x="255.2848" y="-459.7095" font-family="Times,serif" font-size="14.00" fill="#444455">name: A</text>
</g>
<!-- n3ab40f9e_1&#45;&gt;ln_14 -->
<g id="edge27" class="edge">
<title>n3ab40f9e_1-&gt;ln_14</title>
<path fill="none" stroke="#000000" d="M279.1933,-537.586C279.1933,-532.2048 279.1933,-516.5155 279.1933,-501.8677"/>
</g>
<!-- nedc65290_1 -->
<g id="node28" class="node">
<title>nedc65290_1</title>
<ellipse fill="#000000" stroke="#000000" cx="87.1933" cy="-405.0939" rx="1.8" ry="1.8"/>
</g>
<!-- ln_13&#45;&gt;nedc65290_1 -->
<g id="edge26" class="edge">
<title>ln_13-&gt;nedc65290_1</title>
<path fill="none" stroke="#000000" d="M87.1933,-442.6321C87.1933,-433.6026 87.1933,-424.1895 87.1933,-417.048"/>
<polygon fill="#000000" stroke="#000000" points="90.6934,-417.015 87.1933,-407.0151 83.6934,-417.0151 90.6934,-417.015"/>
</g>
<!-- ln_18 -->
<g id="node34" class="node">
<title>ln_18</title>
<ellipse fill="#f0f0f0" stroke="transparent" cx="87.1933" cy="-337.8782" rx="87.3871" ry="29.3315"/>
<text text-anchor="start" x="33.5383" y="-342.0782" font-family="Times,serif" font-size="14.00" fill="#000000">AddProductToCart</text>
<text text-anchor="start" x="63.2848" y="-325.2782" font-family="Times,serif" font-size="14.00" fill="#444455">name: A</text>
</g>
<!-- nedc65290_1&#45;&gt;ln_18 -->
<g id="edge35" class="edge">
<title>nedc65290_1-&gt;ln_18</title>
<path fill="none" stroke="#000000" d="M87.1933,-403.1547C87.1933,-397.7735 87.1933,-382.0843 87.1933,-367.4364"/>
</g>
<!-- ln_14&#45;&gt;n97339df2_1 -->
<g id="edge28" class="edge">
<title>ln_14-&gt;n97339df2_1</title>
<path fill="none" stroke="#000000" d="M317.1351,-445.7441C334.4302,-433.6347 353.5494,-420.2481 364.9566,-412.2612"/>
<polygon fill="#000000" stroke="#000000" points="367.2557,-414.9242 373.4399,-406.3215 363.2408,-409.19 367.2557,-414.9242"/>
</g>
<!-- n4a_1 -->
<g id="node31" class="node">
<title>n4a_1</title>
<ellipse fill="#000000" stroke="#000000" cx="567.1933" cy="-1.8" rx="1.8" ry="1.8"/>
</g>
<!-- ln_15&#45;&gt;n4a_1 -->
<g id="edge30" class="edge">
<title>ln_15-&gt;n4a_1</title>
<path fill="none" stroke="#000000" d="M625.2516,-42.4502C607.9565,-30.3408 588.8372,-16.9543 577.4301,-8.9674"/>
<polygon fill="#000000" stroke="#000000" points="579.1459,-5.8961 568.9467,-3.0277 575.131,-11.6303 579.1459,-5.8961"/>
</g>
<!-- ln_16&#45;&gt;na6c56f38_1 -->
<g id="edge32" class="edge">
<title>ln_16-&gt;na6c56f38_1</title>
<path fill="none" stroke="#000000" d="M471.1933,-173.7695C471.1933,-164.7401 471.1933,-155.3269 471.1933,-148.1855"/>
<polygon fill="#000000" stroke="#000000" points="474.6934,-148.1525 471.1933,-138.1525 467.6934,-148.1525 474.6934,-148.1525"/>
</g>
<!-- ln_17&#45;&gt;n4cedbd58_1 -->
<g id="edge34" class="edge">
<title>ln_17-&gt;n4cedbd58_1</title>
<path fill="none" stroke="#000000" d="M663.1933,-173.7695C663.1933,-164.7401 663.1933,-155.3269 663.1933,-148.1855"/>
<polygon fill="#000000" stroke="#000000" points="666.6934,-148.1525 663.1933,-138.1525 659.6934,-148.1525 666.6934,-148.1525"/>
</g>
<!-- ln_18&#45;&gt;n4a45e0e4_1 -->
<g id="edge36" class="edge">
<title>ln_18-&gt;n4a45e0e4_1</title>
<path fill="none" stroke="#000000" d="M147.9433,-316.6108C190.7557,-301.623 244.4296,-282.8327 267.6309,-274.7104"/>
<polygon fill="#000000" stroke="#000000" points="269.0112,-277.9355 277.293,-271.3278 266.6982,-271.3287 269.0112,-277.9355"/>
</g>
<!-- ln_19&#45;&gt;n4a_1 -->
<g id="edge38" class="edge">
<title>ln_19-&gt;n4a_1</title>
<path fill="none" stroke="#000000" d="M509.1351,-42.4502C526.4302,-30.3408 545.5494,-16.9543 556.9566,-8.9674"/>
<polygon fill="#000000" stroke="#000000" points="559.2557,-11.6303 565.4399,-3.0277 555.2408,-5.8961 559.2557,-11.6303"/>
</g>
<!-- ln_20&#45;&gt;nf06e2f04_1 -->
<g id="edge40" class="edge">
<title>ln_20-&gt;nf06e2f04_1</title>
<path fill="none" stroke="#000000" d="M986.4433,-316.6108C943.631,-301.623 889.957,-282.8327 866.7558,-274.7104"/>
<polygon fill="#000000" stroke="#000000" points="867.6885,-271.3287 857.0936,-271.3278 865.3755,-277.9355 867.6885,-271.3287"/>
</g>
<!-- ln_21&#45;&gt;n3ab40f9e_2 -->
<g id="edge42" class="edge">
<title>ln_21-&gt;n3ab40f9e_2</title>
<path fill="none" stroke="#000000" d="M625.2516,-580.1754C607.9565,-568.066 588.8372,-554.6794 577.4301,-546.6925"/>
<polygon fill="#000000" stroke="#000000" points="579.1459,-543.6213 568.9467,-540.7528 575.131,-549.3555 579.1459,-543.6213"/>
</g>
<!-- ln_22&#45;&gt;n3ab40f9e_3 -->
<g id="edge44" class="edge">
<title>ln_22-&gt;n3ab40f9e_3</title>
<path fill="none" stroke="#000000" d="M855.1933,-577.0634C855.1933,-568.0339 855.1933,-558.6207 855.1933,-551.4793"/>
<polygon fill="#000000" stroke="#000000" points="858.6934,-551.4463 855.1933,-541.4464 851.6934,-551.4464 858.6934,-551.4463"/>
</g>
<!-- ln_23&#45;&gt;n3ab40f9e_1 -->
<g id="edge46" class="edge">
<title>ln_23-&gt;n3ab40f9e_1</title>
<path fill="none" stroke="#000000" d="M279.1933,-577.0634C279.1933,-568.0339 279.1933,-558.6207 279.1933,-551.4793"/>
<polygon fill="#000000" stroke="#000000" points="282.6934,-551.4463 279.1933,-541.4464 275.6934,-551.4464 282.6934,-551.4463"/>
</g>
<!-- ln_24&#45;&gt;n3ab40f9e_2 -->
<g id="edge48" class="edge">
<title>ln_24-&gt;n3ab40f9e_2</title>
<path fill="none" stroke="#000000" d="M509.1351,-580.1754C526.4302,-568.066 545.5494,-554.6794 556.9566,-546.6925"/>
<polygon fill="#000000" stroke="#000000" points="559.2557,-549.3555 565.4399,-540.7528 555.2408,-543.6213 559.2557,-549.3555"/>
</g>
</g>
</svg>